<?xml version="1.0" encoding="UTF-8"?>
<svg version="1.1" xmlns="http://www.w3.org/2000/svg" width="525" height="708">
<path d="M0 0 C1.66796875 1.46484375 1.66796875 1.46484375 3 3 C3.845625 3.45375 4.69125 3.9075 5.5625 4.375 C8.46883816 6.31255877 8.89428 7.76789538 10 11 C10.66 11.33 11.32 11.66 12 12 C12.78125 13.8203125 12.78125 13.8203125 13.5 16.125 C13.7371875 16.87007812 13.974375 17.61515625 14.21875 18.3828125 C16.2060439 25.04024707 17.95072286 31.72900243 19.58789062 38.47851562 C20.51054279 42.33790835 20.51054279 42.33790835 22 46 C22 47.66666667 22 49.33333333 22 51 C22.144375 51.55300781 22.28875 52.10601562 22.4375 52.67578125 C23.24616194 56.01712745 23.60572687 59.4028596 24 62.8125 C24.13136353 63.93060059 24.13136353 63.93060059 24.26538086 65.07128906 C24.97429317 71.31605991 25.41815482 77.55162881 25.75390625 83.828125 C25.92403154 86.89734162 25.92403154 86.89734162 26.51171875 89.453125 C28.43084041 99.46326358 27.04265061 110.26723181 25.625 120.25 C25.49899414 121.14267578 25.37298828 122.03535156 25.24316406 122.95507812 C24.58571539 127.2539071 23.75311777 130.99393939 22 135 C21.54269561 139.84742652 22.31559134 143.28621145 24.1328125 147.77734375 C26.95057636 154.99945023 28.27596259 161.60729101 28.04296875 169.3515625 C27.96164443 174.36409791 28.41357286 179.24071858 30 184 C31.72945653 183.85764543 33.45855654 183.71095618 35.1875 183.5625 C36.15042969 183.48128906 37.11335938 183.40007812 38.10546875 183.31640625 C40.92764714 183.05739074 40.92764714 183.05739074 43.37426758 182.49291992 C47.73051911 181.67513546 52.07913207 181.7743239 56.5 181.75 C57.90572266 181.7190625 57.90572266 181.7190625 59.33984375 181.6875 C68.2078893 181.63718485 68.2078893 181.63718485 72 185 C72.3125 187.6875 72.3125 187.6875 72 190 C66.00418199 192.00138571 60.22285847 192.54740058 53.9375 193 C45.22373602 193.6863415 36.63104374 194.59390275 28 196 C27.81824219 197.18335938 27.63648438 198.36671875 27.44921875 199.5859375 C26.13806055 207.90313016 24.82277393 216.03217004 22 224 C23.48693359 223.88591797 23.48693359 223.88591797 25.00390625 223.76953125 C29.61046733 223.77532275 32.94902728 225.53960349 36.9375 227.6875 C37.6375415 228.05472168 38.33758301 228.42194336 39.05883789 228.80029297 C40.43266547 229.5272654 41.80257066 230.26171076 43.16796875 231.00439453 C44.69497236 231.83423471 46.23646849 232.63733699 47.78125 233.43359375 C51.31034878 235.38354869 52.81098998 236.37390432 54 240.3125 C54 243 54 243 52.5625 244.6875 C49.54869834 246.23115451 49.05388701 246.0342766 45.9375 245.0625 C42.33872236 243.70048302 39.08609322 241.97162196 35.75 240.0625 C29.78598318 236.67020107 23.59867238 234.78342497 17 233 C16.443125 234.155 15.88625 235.31 15.3125 236.5 C9.40264566 248.29867717 9.40264566 248.29867717 6 250 C5.71125 250.804375 5.4225 251.60875 5.125 252.4375 C3.76946052 255.5251177 2.91756728 255.58542192 0 257 C-0.7425 258.2375 -0.7425 258.2375 -1.5 259.5 C-3.19973832 262.3328972 -4.10399797 262.63717551 -7 264 C-8.68933922 265.6436814 -10.35259924 267.3142876 -12 269 C-16.55115482 273.22440524 -21.45270474 276.8165575 -26.5703125 280.32421875 C-28.70815686 281.79871269 -30.79243992 283.32425247 -32.875 284.875 C-36 287 -36 287 -38.03515625 287.50390625 C-40.26844436 287.92243711 -40.26844436 287.92243711 -42.5625 290.0625 C-45 292 -45 292 -48 292 C-48 292.66 -48 293.32 -48 294 C-49.6232687 294.6708712 -51.24867578 295.33657029 -52.875 296 C-53.77992188 296.37125 -54.68484375 296.7425 -55.6171875 297.125 C-58 298 -58 298 -60 298 C-58.73167312 300.56376764 -57.46043635 303.12602212 -56.1875 305.6875 C-55.83107422 306.40873047 -55.47464844 307.12996094 -55.10742188 307.87304688 C-53.21193781 311.68140477 -51.25792874 315.38873857 -49 319 C-48.44570313 318.71125 -47.89140625 318.4225 -47.3203125 318.125 C-46.59585937 317.75375 -45.87140625 317.3825 -45.125 317 C-44.40570313 316.62875 -43.68640625 316.2575 -42.9453125 315.875 C-41 315 -41 315 -39 315 C-38.690625 314.1646875 -38.690625 314.1646875 -38.375 313.3125 C-36.82898504 310.71238393 -34.9334937 309.15277657 -32.578125 307.2890625 C-30.77237394 305.85805451 -30.77237394 305.85805451 -28.4375 303.4375 C-26.08068814 301.08068814 -23.61304889 299.06293333 -21 297 C-20.57203125 296.52820313 -20.1440625 296.05640625 -19.703125 295.5703125 C-12.63031998 289.0490565 -1.33048344 285.71877326 8 284 C9.03769531 283.67257812 10.07539063 283.34515625 11.14453125 283.0078125 C15.15008037 281.96076927 18.95078252 281.59790002 23.0625 281.4375 C27.77916544 281.22777126 32.34253153 280.79710564 37 280 C38.3744431 279.96086995 39.75072064 279.95548893 41.125 280 C44.74957739 280.18223242 44.74957739 280.18223242 47.125 279.375 C50.01277075 278.79744585 52.23455586 280.06079256 55 281 C56.45652193 281.12700655 57.91530382 281.22959127 59.375 281.3125 C65.7002451 281.92049152 69.8310971 285.10220996 74.5 289.1875 C76.78891536 293.47921631 76.80786269 297.2474384 76 302 C73.40513486 309.15869831 67.2127494 313.96750117 61 318 C58.58741223 319.03518837 56.60038768 319.54775866 54 320 C54.763125 320.5775 55.52625 321.155 56.3125 321.75 C59.84762086 324.70963607 62.20901401 327.75498214 64 332 C64.42162758 337.24399298 63.68860654 341.77334205 60.375 345.9375 C57.29614462 349.0677921 54.18340552 350.60553149 50 352 C48.865625 352.391875 47.73125 352.78375 46.5625 353.1875 C42.14797811 354.19432078 37.19780118 355.09890059 33 353 C33.350625 353.78375 33.70125 354.5675 34.0625 355.375 C35.56390039 361.18041485 35.2115126 366.52430034 32.5625 371.9375 C26.20823779 377.05190617 18.5445755 377.33197062 10.6640625 377.30078125 C7.98358089 376.99814623 6.30075798 376.36846032 4 375 C4.04640625 375.72445313 4.0928125 376.44890625 4.140625 377.1953125 C4.37236083 383.40252231 4.27924032 387.14248396 0 392 C-0.78375 392.9075 -1.5675 393.815 -2.375 394.75 C-7.56164226 399.19569337 -14.29995277 400.12018022 -21 400 C-24.13316029 399.27803101 -27.04611648 398.26289223 -30 397 C-30.36262997 399.43651378 -30.71538964 401.87376977 -31.0625 404.3125 C-31.2181543 405.34793945 -31.2181543 405.34793945 -31.37695312 406.40429688 C-31.83808836 409.69584836 -32.06594625 411.80216124 -31 415 C-31.33 415.99 -31.66 416.98 -32 418 C-32.32467002 427.21866084 -31.44003999 436.44917421 -30.77905273 445.64086914 C-30.19436498 453.84571273 -29.71794365 461.82393747 -31 470 C-24.12214888 470.21271704 -17.77151353 470.02479138 -11.05859375 468.4375 C-9 468 -9 468 -6 468 C-6 467.34 -6 466.68 -6 466 C-4.0848421 465.18395001 -2.16781166 464.37229368 -0.25 463.5625 C0.81734375 463.11003906 1.8846875 462.65757812 2.984375 462.19140625 C6 461 6 461 8.328125 460.52734375 C9.15570313 460.26630859 9.15570313 460.26630859 10 460 C10.33 459.01 10.66 458.02 11 457 C11.763125 456.401875 12.52625 455.80375 13.3125 455.1875 C16.31540598 452.74327421 17.93768026 450.25979572 20 447 C20.66 446.195625 21.32 445.39125 22 444.5625 C28.93192236 435.68097448 31.5258799 425.42354341 33.4375 414.5 C34.32230751 410.56752217 35.66618804 406.79997469 37 403 C37.4640625 401.6696875 37.4640625 401.6696875 37.9375 400.3125 C39.33577567 397.26919413 40.96124813 394.65655546 43 392 C43.99 392 44.98 392 46 392 C46.33 391.01 46.66 390.02 47 389 C49.15220455 385.83499331 52.05035333 385.1405024 55.6875 384.3515625 C64.4583999 383.01814866 70.61208482 383.91912339 77.9375 389.0625 C78.618125 389.701875 79.29875 390.34125 80 391 C80 391.66 80 392.32 80 393 C80.66 393 81.32 393 82 393 C88.32744561 399.32744561 90.2077843 409.35257511 91 418 C90.91076077 422.69818279 90.49923043 427.329422 90 432 C89.92523438 432.83789062 89.85046875 433.67578125 89.7734375 434.5390625 C89.00990142 442.54205183 87.81236131 449.85182254 84 457 C83.67 458.19625 83.34 459.3925 83 460.625 C82.063163 463.78682487 81.26463297 465.64100733 79 468 C78.34 468 77.68 468 77 468 C76.938125 468.9075 76.87625 469.815 76.8125 470.75 C75.79586448 474.81654207 74.30397979 475.56134825 71 478 C69.98133771 479.65532623 68.98189187 481.32260138 68 483 C66.37660195 484.70884005 64.70680947 486.37446717 63 488 C62.154375 488.9075 61.30875 489.815 60.4375 490.75 C57.97770902 493.02057629 57.07056349 493.2588295 54 494 C53.71125 494.598125 53.4225 495.19625 53.125 495.8125 C51.46866277 499.03315572 49.07062801 500.12350511 46 502 C45.45730469 502.35707031 44.91460937 502.71414063 44.35546875 503.08203125 C24.73600535 515.86246601 2.78502969 524.63783285 -21.0625 521.5 C-24.84580266 520.90866963 -24.84580266 520.90866963 -28.0625 521.125 C-31.95277515 520.95945638 -34.50107888 519.67948214 -38 518 C-38.103125 518.969375 -38.20625 519.93875 -38.3125 520.9375 C-38.84509938 524.67319703 -39.93520522 528.06110327 -41.18359375 531.61328125 C-42.01943271 534.05681047 -42.73268118 536.51580251 -43.4375 539 C-44.87345136 543.87306897 -46.81960971 548.41786 -49 553 C-49.66 553 -50.32 553 -51 553 C-51.0825 554.051875 -51.165 555.10375 -51.25 556.1875 C-52.08389495 560.42646601 -53.24625077 561.77417947 -56 565 C-57.06552171 567.01574442 -58.03141631 569.05642912 -58.97265625 571.1328125 C-60.07262876 573.13200208 -61.32142797 574.46883798 -63 576 C-62.21625 575.484375 -61.4325 574.96875 -60.625 574.4375 C-59.75875 573.963125 -58.8925 573.48875 -58 573 C-57.34 573.33 -56.68 573.66 -56 574 C-57.43452447 575.93976579 -58.87246817 577.87682931 -60.3125 579.8125 C-60.71662109 580.35970703 -61.12074219 580.90691406 -61.53710938 581.47070312 C-67.23258028 589.11096898 -72.68630105 592.08806514 -82 593.8125 C-82.68578125 593.95880859 -83.3715625 594.10511719 -84.078125 594.25585938 C-88.7012215 595.13371835 -91.67562032 594.76364396 -96 593 C-97.010625 592.87625 -98.02125 592.7525 -99.0625 592.625 C-103.62588241 591.65406757 -106.18601251 589.20305199 -108.7734375 585.37890625 C-109.30195313 584.44949219 -109.83046875 583.52007813 -110.375 582.5625 C-112.54175359 578.98285238 -114.24728664 576.46621371 -117.8125 574.25 C-121 572 -121 572 -122.5625 568.5 C-123.041104 564.67116803 -122.50944202 563.4381735 -121 560 C-120.58850777 556.27370922 -120.55196867 553.097766 -121.98046875 549.59765625 C-123.0870368 546.77823956 -123.36551765 544.45091079 -123.5625 541.4375 C-123.80925111 536.6256463 -123.80925111 536.6256463 -125 532 C-125.99 531.67 -126.98 531.34 -128 531 C-128 530.34 -128 529.68 -128 529 C-134.33414872 526.88861709 -139.75831299 525.81553744 -146.25 528.1875 C-149.8177811 530.53899209 -152.09221079 533.18442157 -154 537 C-154.07139635 539.14474644 -154.08403003 541.29167354 -154.0625 543.4375 C-154.05347656 544.59121094 -154.04445312 545.74492188 -154.03515625 546.93359375 C-154.02355469 547.94550781 -154.01195312 548.95742188 -154 550 C-154 553 -154 553 -155.3125 554.6875 C-157.26773431 557.36689517 -158.21644562 559.95187914 -159.30859375 563.0625 C-160 565 -160 565 -161.125 567.4375 C-162.10688008 569.87900791 -162.10688008 569.87900791 -162.02734375 572.09375 C-162.11800894 578.13809569 -162.11800894 578.13809569 -164.88671875 580.84375 C-168.74835887 583.44796351 -172.65100794 585.34213955 -177 587 C-177 587.66 -177 588.32 -177 589 C-188.55327343 590.07830552 -188.55327343 590.07830552 -193.3125 589.9375 C-197.33172799 590.00562251 -200.21410095 590.73803365 -204 592 C-207.37699233 588.83938246 -210.06111045 585.34848165 -212.6875 581.5625 C-213.09033203 581.00240234 -213.49316406 580.44230469 -213.90820312 579.86523438 C-216.22158452 576.54435019 -217.28497457 573.93598109 -218 570 C-219.34162463 568.18857857 -219.34162463 568.18857857 -221 566.625 C-224.22923191 563.10992699 -224.80738421 560.71908675 -225 556 C-225.66 556 -226.32 556 -227 556 C-229.70737356 549.84412827 -231.86139828 543.55341008 -233.8125 537.125 C-234.15897583 536.01910522 -234.15897583 536.01910522 -234.51245117 534.89086914 C-235.61591872 531.16703909 -236.16152444 528.70437657 -235 525 C-235.66 525 -236.32 525 -237 525 C-242 495.9 -242 495.9 -242 489 C-242.17067556 486.61961098 -242.3443185 484.23943435 -242.51953125 481.859375 C-242.91070647 476.10134795 -243.03805803 470.4093421 -242.88671875 464.640625 C-242.87174347 463.95005005 -242.85676819 463.2594751 -242.84133911 462.54797363 C-242.77922625 459.73954114 -242.71486869 456.93241366 -242.60229492 454.12548828 C-242.26107902 445.16728232 -242.98557012 438.58268725 -247.54663086 430.58886719 C-251.26094079 423.97261614 -251.50025985 416.42519035 -252.125 409 C-252.21136719 408.03449219 -252.29773438 407.06898438 -252.38671875 406.07421875 C-252.59680508 403.71658324 -252.80110492 401.35860143 -253 399 C-254.10601562 399.23976563 -254.10601562 399.23976563 -255.234375 399.484375 C-262.37644933 400.81594818 -269.50504415 400.50385776 -276 397 C-279.61419617 393.73332269 -283.8369994 389.25266826 -284.1953125 384.30078125 C-284.17210937 383.31464844 -284.14890625 382.32851563 -284.125 381.3125 C-284.10695313 380.31863281 -284.08890625 379.32476562 -284.0703125 378.30078125 C-284.04710937 377.54152344 -284.02390625 376.78226562 -284 376 C-284.76183594 376.22816406 -285.52367187 376.45632813 -286.30859375 376.69140625 C-293.46491621 378.68374072 -300.12866781 380.51032253 -307.0390625 376.94921875 C-310.40400258 374.71284911 -312.5496259 372.85385117 -314 369 C-314.23046875 366.30859375 -314.23046875 366.30859375 -314.1875 363.4375 C-314.18105469 362.48746094 -314.17460937 361.53742188 -314.16796875 360.55859375 C-314 358 -314 358 -313 355 C-313.89460938 354.97421875 -314.78921875 354.9484375 -315.7109375 354.921875 C-323.93933652 354.53589466 -332.12984092 354.10355997 -338.6875 348.578125 C-342.45014491 344.43066413 -343 341.13630032 -343 335.75 C-341.77092068 331.14095257 -339.56134808 328.50129423 -336.49609375 324.91796875 C-334.79498274 323.14258243 -334.79498274 323.14258243 -335 321 C-336.12148438 320.43732422 -336.12148438 320.43732422 -337.265625 319.86328125 C-344.57352408 316.06585201 -349.31662058 312.9360592 -352.4609375 305.0234375 C-353.8448488 299.82875594 -353.7304 294.90143477 -351.80859375 289.8984375 C-348.58971962 284.73989624 -343.60987403 282.92230846 -338 281 C-325.97241379 279.0137931 -325.97241379 279.0137931 -322 281 C-321.01 280.67 -320.02 280.34 -319 280 C-316.85141264 280.06162832 -314.7044284 280.19508774 -312.5625 280.375 C-311.42941406 280.46523438 -310.29632813 280.55546875 -309.12890625 280.6484375 C-306 281 -306 281 -304.03515625 281.51171875 C-299.838812 282.51851919 -295.41468536 282.41113284 -291.1171875 282.62109375 C-288 283 -288 283 -286 285 C-284.17489972 285.57394299 -284.17489972 285.57394299 -282.0625 285.9375 C-276.6361488 287.04221319 -271.33018424 288.50555582 -266 290 C-266 290.66 -266 291.32 -266 292 C-265.4225 292.12375 -264.845 292.2475 -264.25 292.375 C-261.97664233 293.00648824 -260.0746471 293.88858191 -258 295 C-258 295.66 -258 296.32 -258 297 C-256.824375 297.37125 -256.824375 297.37125 -255.625 297.75 C-252.59062001 299.19494285 -252.32970275 300.05565819 -251 303 C-250.01 303.33 -249.02 303.66 -248 304 C-248 304.66 -248 305.32 -248 306 C-247.34 306.185625 -246.68 306.37125 -246 306.5625 C-243.11073962 307.94693726 -241.40812558 309.30347596 -239.0625 311.4375 C-233.76074369 316.28955029 -233.76074369 316.28955029 -227 318 C-225.68 315.36 -224.36 312.72 -223 310 C-222.34 310 -221.68 310 -221 310 C-220.9175 309.46375 -220.835 308.9275 -220.75 308.375 C-219.73623902 305.1647569 -217.92839451 302.73707608 -216 300 C-218.82479846 297.91096891 -218.82479846 297.91096891 -221.75 297.15234375 C-225.60503437 295.78547459 -228.62976788 293.83998219 -232 291.5625 C-236.2305064 288.731386 -240.40595629 286.22503541 -245 284 C-251.93879699 279.62554103 -258.27158886 274.87162142 -264 269 C-265.96137197 267.2596843 -267.94436751 265.54755681 -269.9375 263.84375 C-274.52182589 259.74564049 -278.42133574 255.38158806 -282.125 250.5 C-282.55425781 249.94441406 -282.98351562 249.38882813 -283.42578125 248.81640625 C-293 236.29627404 -293 236.29627404 -293 231 C-304.23393899 234.50075654 -314.97560434 237.99076085 -325.1875 243.91015625 C-328 245 -328 245 -330.875 244.18359375 C-331.57625 243.79300781 -332.2775 243.40242187 -333 243 C-333.05651682 240.17415894 -333.0349242 238.57178664 -332 236 C-323.77556074 228.05593935 -310.2038216 223.81010472 -299 224 C-299.27714844 223.13117188 -299.55429687 222.26234375 -299.83984375 221.3671875 C-300.20207031 220.21476563 -300.56429687 219.06234375 -300.9375 217.875 C-301.29714844 216.73804688 -301.65679687 215.60109375 -302.02734375 214.4296875 C-303.79875445 208.18350841 -304.12892601 202.44630046 -304 196 C-304.62753174 195.98018066 -305.25506348 195.96036133 -305.90161133 195.93994141 C-316.9133025 195.57686351 -327.90854442 195.16161911 -338.875 194.0625 C-339.67010986 193.98789551 -340.46521973 193.91329102 -341.28442383 193.83642578 C-346.75524304 193.24475696 -346.75524304 193.24475696 -349 191 C-349.25 188 -349.25 188 -349 185 C-347 183 -347 183 -344.92797852 182.75708008 C-344.08678467 182.76118896 -343.24559082 182.76529785 -342.37890625 182.76953125 C-340.98321411 182.77146484 -340.98321411 182.77146484 -339.55932617 182.7734375 C-338.57037354 182.78632813 -337.5814209 182.79921875 -336.5625 182.8125 C-335.56001221 182.81894531 -334.55752441 182.82539063 -333.5246582 182.83203125 C-327.73803993 182.89228401 -322.02609254 183.11644002 -316.2734375 183.77734375 C-312.5107068 184.14585861 -308.77747592 184.06192583 -305 184 C-304.90912109 182.80117188 -304.90912109 182.80117188 -304.81640625 181.578125 C-304.63965238 179.26128961 -304.45690992 176.94490655 -304.26953125 174.62890625 C-304.10626621 172.43074354 -303.9706556 170.2299625 -303.88671875 168.02734375 C-303.46070477 159.1784248 -300.85914422 151.31367398 -298 143 C-297.34 143 -296.68 143 -296 143 C-296.28875 142.21625 -296.5775 141.4325 -296.875 140.625 C-304.06323991 117.46289364 -303.19713086 91.75765857 -300 68 C-299.8875293 67.1548584 -299.77505859 66.3097168 -299.65917969 65.43896484 C-298.26623562 55.16456332 -296.5938715 45.04955449 -294 35 C-293.76410156 34.02546875 -293.52820313 33.0509375 -293.28515625 32.046875 C-291.99021839 26.92312085 -290.41430305 22.36603596 -287.90625 17.7109375 C-286.88630738 15.86679918 -286.88630738 15.86679918 -285.9375 13.25 C-284.92863461 10.82872307 -283.58932425 9.07303163 -282 7 C-281.67 6.01 -281.34 5.02 -281 4 C-274.68787507 -0.05005441 -268.84876495 -0.83973054 -261.5625 0.75 C-253.3832041 3.61992839 -246.23552919 8.12778545 -239.0625 12.9375 C-238.06347656 13.60652344 -237.06445312 14.27554688 -236.03515625 14.96484375 C-235.03355469 15.63644531 -234.03195313 16.30804688 -233 17 C-231.94683594 17.69351563 -230.89367187 18.38703125 -229.80859375 19.1015625 C-226.68288092 21.21435309 -223.86809971 23.55016483 -221 26 C-220.43539062 26.44859375 -219.87078125 26.8971875 -219.2890625 27.359375 C-217.82337008 28.52917646 -216.40713615 29.76038006 -215 31 C-215 31.66 -215 32.32 -215 33 C-214.2471875 33.08765625 -213.494375 33.1753125 -212.71875 33.265625 C-209.4750025 34.14180967 -208.5681945 35.15500124 -206.5 37.75 C-205.901875 38.46671875 -205.30375 39.1834375 -204.6875 39.921875 C-204.130625 40.60765625 -203.57375 41.2934375 -203 42 C-199.66015805 46.06561638 -199.66015805 46.06561638 -194.8125 47.5625 C-191.49554732 47.07311354 -189.44782762 46.42074675 -186.4453125 45.1015625 C-181.06637872 42.90030702 -175.77852116 41.76584062 -170.0625 40.8125 C-169.15048828 40.64814453 -168.23847656 40.48378906 -167.29882812 40.31445312 C-158.02994967 38.69649342 -148.78501491 37.8117114 -139.375 37.875 C-138.64643799 37.87765869 -137.91787598 37.88031738 -137.16723633 37.88305664 C-131.43897781 37.93357941 -125.65224449 38.00664925 -120.08984375 39.51953125 C-117.6573047 40.07878789 -115.36927221 40.15051336 -112.875 40.25 C-103.503162 40.95491013 -93.87750374 43.60516077 -85.171875 47.15234375 C-82.37749164 48.2429574 -79.97031092 48.138154 -77 48 C-76.76925781 47.28199219 -76.53851563 46.56398437 -76.30078125 45.82421875 C-74.74652859 42.44967018 -72.82214801 40.42344803 -70.1875 37.8125 C-69.33542969 36.95269531 -68.48335938 36.09289062 -67.60546875 35.20703125 C-65.07574005 33.06415761 -63.06898693 32.13095885 -60 31 C-58.65589738 28.98264795 -58.65589738 28.98264795 -58 27 C-57.01 27 -56.02 27 -55 27 C-55 26.34 -55 25.68 -55 25 C-51.50602424 21.83104524 -48.04654291 19.42059063 -44 17 C-42.42825942 15.90902712 -40.86591199 14.80441606 -39.3125 13.6875 C-14.88526861 -3.5316959 -14.88526861 -3.5316959 0 0 Z " fill="#111111" transform="translate(405,97)"/>
<path d="M0 0 C3.3 0.33 6.6 0.66 10 1 C10 1.66 10 2.32 10 3 C11.918125 3.4640625 11.918125 3.4640625 13.875 3.9375 C16.10101675 4.47605244 17.94739999 4.9737 20 6 C20 6.66 20 7.32 20 8 C21.03125 8.226875 22.0625 8.45375 23.125 8.6875 C27.25670325 9.85370656 29.8017752 12.14940833 33 15 C33.9075 15.495 34.815 15.99 35.75 16.5 C38.50262978 18.33508652 39.07271643 19.88095527 40 23 C40.99 22.67 41.98 22.34 43 22 C43.495 22.70125 43.99 23.4025 44.5 24.125 C48.18497508 28.36272134 52.64915049 31.37562829 57.25 34.5546875 C58.11625 35.27011719 58.11625 35.27011719 59 36 C59 36.66 59 37.32 59 38 C59.62132812 38.23589844 60.24265625 38.47179687 60.8828125 38.71484375 C64.14028622 40.69216636 64.52777707 43.50903237 65.6796875 47.00390625 C66.88006239 49.25394502 66.88006239 49.25394502 69.625 49.9296875 C73.88370828 50.01841059 77.14697861 48.97584155 81.125 47.5625 C85.20574334 46.15108694 88.61156606 45 93 45 C93 44.34 93 43.68 93 43 C98.94 42.505 98.94 42.505 105 42 C106.94924238 46.87310595 107.71172924 51.02144006 108.4375 56.16015625 C108.95886563 58.79232859 109.67039147 60.68980517 111 63 C111.99 63 112.98 63 114 63 C114.1567564 55.28410183 113.67453101 47.68483539 113 40 C114.65 40.33 116.3 40.66 118 41 C118.13277344 42.25296875 118.26554688 43.5059375 118.40234375 44.796875 C118.58058291 46.44793246 118.7589764 48.09897327 118.9375 49.75 C119.06801758 50.9875 119.06801758 50.9875 119.20117188 52.25 C119.28818359 53.04921875 119.37519531 53.8484375 119.46484375 54.671875 C119.543396 55.4050293 119.62194824 56.13818359 119.70288086 56.89355469 C119.9973877 58.98147994 120.45117496 60.96552768 121 63 C122.65 63.33 124.3 63.66 126 64 C125.34 55.75 124.68 47.5 124 39 C125.98 39 127.96 39 130 39 C130.99 51.87 130.99 51.87 132 65 C133.32 65.33 134.64 65.66 136 66 C137.07624414 60.55547082 137.32192966 55.15417411 137.5625 49.625 C137.62727539 48.23474609 137.62727539 48.23474609 137.69335938 46.81640625 C137.79876186 44.54439706 137.90088606 42.27229075 138 40 C139.32 40 140.64 40 142 40 C141.97679687 41.24136719 141.95359375 42.48273438 141.9296875 43.76171875 C141.91092269 45.4036398 141.89272325 47.04556738 141.875 48.6875 C141.84986328 49.91243164 141.84986328 49.91243164 141.82421875 51.16210938 C141.7885198 55.57092929 141.92419186 58.98731576 144 63 C144.99 63 145.98 63 147 63 C147.99 55.74 148.98 48.48 150 41 C150.99 41 151.98 41 153 41 C152.99476318 41.59538574 152.98952637 42.19077148 152.98413086 42.80419922 C152.96338001 45.49445547 152.95034593 48.18469489 152.9375 50.875 C152.92912109 51.81214844 152.92074219 52.74929687 152.91210938 53.71484375 C152.90888672 54.61074219 152.90566406 55.50664062 152.90234375 56.4296875 C152.89710693 57.25710449 152.89187012 58.08452148 152.88647461 58.93701172 C152.86647862 61.06411757 152.86647862 61.06411757 154 63 C154.99 63 155.98 63 157 63 C159.54322809 56.06392339 160.94915607 49.30645606 162 42 C169.8612276 42.76076396 177.45421237 43.80759696 184.98046875 46.27734375 C185.68421631 46.50776367 186.38796387 46.73818359 187.11303711 46.97558594 C188.5101974 47.44104 189.90324474 47.91907725 191.29125977 48.41113281 C195.59048774 49.85501845 198.60119729 50.12702243 203 49 C202.90203125 48.11957031 202.8040625 47.23914063 202.703125 46.33203125 C203.09379389 41.94728702 204.60104064 40.68629222 207.75 37.6875 C209.07257813 36.39392578 209.07257813 36.39392578 210.421875 35.07421875 C212.78621512 33.17199965 214.04555231 32.3658545 217 32 C217 31.34 217 30.68 217 30 C217.66 30 218.32 30 219 30 C219.33 29.01 219.66 28.02 220 27 C222.0625 26.3125 222.0625 26.3125 224 26 C224 25.34 224 24.68 224 24 C225.57421875 22.30859375 225.57421875 22.30859375 227.6875 20.4375 C228.37199219 19.81746094 229.05648437 19.19742188 229.76171875 18.55859375 C232.21752262 16.84853137 234.05716611 16.3762292 237 16 C237.33 15.01 237.66 14.02 238 13 C241 11 241 11 245 11 C245.33 10.01 245.66 9.02 246 8 C246.66 8 247.32 8 248 8 C248 7.34 248 6.68 248 6 C248.88751953 5.72736328 248.88751953 5.72736328 249.79296875 5.44921875 C254.86718599 3.86069156 254.86718599 3.86069156 259.5 1.3125 C263.23807794 -0.64999092 266.87312053 -0.8667242 271 0 C273.52623559 2.83244597 274 4.21564776 274 8 C272.515 9.11375 272.515 9.11375 271 10.25 C265.55924208 14.655472 262.91240637 21.07095368 259.8828125 27.22558594 C259.14954298 28.69942523 258.37653343 30.15341315 257.59375 31.6015625 C253.7935692 38.69036131 251.32788921 46.24315997 248.74072266 53.83398438 C247.57910604 57.23077494 246.38672733 60.6163394 245.1875 64 C244.59001953 65.7015625 244.59001953 65.7015625 243.98046875 67.4375 C243 70 243 70 242 71 C241.92851801 72.35243917 241.91600546 73.70834367 241.9375 75.0625 C241.9684375 77.0115625 241.9684375 77.0115625 242 79 C245.08809695 80.76462683 246.23312136 81 250 81 C250.598125 81.9075 251.19625 82.815 251.8125 83.75 C253.88357563 86.82702665 254.49208719 87.49504136 257.5625 89.0625 C261.2962989 91.16700484 261.87654922 92.46091536 264 96 C266.25407482 97.57225535 268.54099408 98.74729887 271 100 C270.67 100.99 270.34 101.98 270 103 C271.98 103.66 273.96 104.32 276 105 C275.45276317 101.62537285 274.9451 99.91765 273 97 C272.3671875 94.73828125 272.3671875 94.73828125 271.875 92.3125 C271.70742188 91.50425781 271.53984375 90.69601563 271.3671875 89.86328125 C271.24601562 89.24839844 271.12484375 88.63351563 271 88 C269.35 87.67 267.7 87.34 266 87 C265.7525 85.88625 265.505 84.7725 265.25 83.625 C264.41925542 79.94462512 264.41925542 79.94462512 261.921875 78.7734375 C261.28765625 78.51820313 260.6534375 78.26296875 260 78 C260.13277344 77.40832031 260.26554687 76.81664062 260.40234375 76.20703125 C260.76583038 74.58062755 261.12371058 72.95296276 261.4765625 71.32421875 C261.86970009 69.57857051 262.3258683 67.84692757 262.8125 66.125 C263.25482044 63.89450162 263.25482044 63.89450162 261.5625 62.1875 C261.046875 61.795625 260.53125 61.40375 260 61 C259.67 62.32 259.34 63.64 259 65 C257 62 257 62 257.1953125 60.265625 C258.33476175 57.05746692 259.58639377 53.90031647 260.875 50.75 C262.49846956 46.749974 264.11715764 42.75618051 265.5625 38.6875 C267.08305524 34.78694525 268.88805569 31.133657 270.79296875 27.41015625 C272.33826496 24.32456479 273.68290777 21.1887496 275 18 C275.66 18 276.32 18 277 18 C278.33333333 23.33333333 279.66666667 28.66666667 281 34 C281.26321045 35.02552979 281.26321045 35.02552979 281.53173828 36.07177734 C282.43659964 39.79784355 282.89792386 43.60859939 283.4609375 47.3984375 C283.80202412 49.67729159 284.15935564 51.95382434 284.5390625 54.2265625 C287.02735127 69.78765195 287.41288886 85.32204052 286 101 C285.79837336 103.811608 285.61784881 106.62445782 285.4375 109.4375 C285.29166667 111.625 285.14583333 113.8125 285 116 C284.01 116 283.02 116 282 116 C282.33 116.99 282.66 117.98 283 119 C283 121.33333333 283 123.66666667 283 126 C283.29692012 128.33824592 283.62020847 130.67377689 284 133 C284.66 133 285.32 133 286 133 C286.50838564 135.03959477 287.00633886 137.08179138 287.5 139.125 C287.91765625 140.83042969 287.91765625 140.83042969 288.34375 142.5703125 C288.96453765 145.81466698 289.12006768 148.70814457 289 152 C289.66 152.33 290.32 152.66 291 153 C291 160.59 291 168.18 291 176 C282 181 282 181 279 181 C279.66 182.65 280.32 184.3 281 186 C283.97 186 286.94 186 290 186 C289.35553449 191.06365761 288.40400578 195.93471812 287.125 200.875 C286.88330078 201.88820313 286.88330078 201.88820313 286.63671875 202.921875 C286.1328125 204.8671875 286.1328125 204.8671875 285 208 C281.52674819 209.1577506 278.63932552 209.06866652 275 209 C275.33 210.98 275.66 212.96 276 215 C276.99 215.33 277.98 215.66 279 216 C278.46463328 220.55061716 276.62240102 223.2977868 274 227 C273.46375 227.94875 272.9275 228.8975 272.375 229.875 C271.92125 230.57625 271.4675 231.2775 271 232 C270.34 232 269.68 232 269 232 C268.731875 232.5775 268.46375 233.155 268.1875 233.75 C266.23056191 237.4578827 265.07061787 239.64312738 261 241 C259.78022489 242.45054338 258.56416849 243.90471827 257.3828125 245.38671875 C255.19960819 247.93379044 252.61863504 249.91578027 250 252 C249.48050781 252.45761719 248.96101563 252.91523438 248.42578125 253.38671875 C245.63805162 255.83739291 243.61433558 257.25220643 240 258 C239.525625 258.474375 239.05125 258.94875 238.5625 259.4375 C236.59429827 261.40570173 234.56721583 261.97311367 232 263 C231.54625 263.474375 231.0925 263.94875 230.625 264.4375 C229 266 229 266 225.5 267.4375 C221.96218797 268.66281145 221.96218797 268.66281145 220.4375 271.1875 C219.963125 271.785625 219.48875 272.38375 219 273 C215.8125 273.25 215.8125 273.25 213 273 C213 273.66 213 274.32 213 275 C211.02 275 209.04 275 207 275 C207 275.66 207 276.32 207 277 C206.45585449 277.14099121 205.91170898 277.28198242 205.35107422 277.42724609 C202.85849266 278.0743739 200.36674575 278.72466167 197.875 279.375 C197.0190625 279.59671875 196.163125 279.8184375 195.28125 280.046875 C191.722607 280.97759702 188.21315496 281.92886366 184.72265625 283.09375 C177.94709498 285.34903008 171.11762661 286.14525769 164 286 C163.39027344 286.16371094 162.78054688 286.32742188 162.15234375 286.49609375 C158.6734769 287.3105653 155.21034486 287.01561197 151.65625 286.9375 C149.10705723 286.89414029 149.10705723 286.89414029 147.13769531 287.4934082 C142.9311648 288.4902733 138.5526404 288.19027165 134.25 288.1875 C133.22173096 288.18814453 132.19346191 288.18878906 131.1340332 288.18945312 C123.85489712 288.13949103 116.85030408 287.58539821 109.66796875 286.4375 C106.72625237 286.08662435 104.11003246 285.99078118 101.16796875 286.046875 C95.9789727 286.09798359 91.18794021 285.32861346 86.125 284.25 C84.81909912 283.97929688 84.81909912 283.97929688 83.48681641 283.703125 C73.24370171 281.51021139 63.65677435 278.01653447 54 274 C54 273.34 54 272.68 54 272 C53.27683594 271.89429688 52.55367188 271.78859375 51.80859375 271.6796875 C48.74812822 270.93904633 46.71269511 269.8080623 44.0625 268.125 C41.20936619 266.34498517 38.46244869 264.73593971 35.4375 263.25 C33 262 33 262 32 260 C29.6859378 259.26924352 27.35171131 258.59861742 25 258 C25 257.01 25 256.02 25 255 C24.34 255 23.68 255 23 255 C23 254.34 23 253.68 23 253 C22.01 253 21.02 253 20 253 C19.67 252.34 19.34 251.68 19 251 C18.01 250.67 17.02 250.34 16 250 C11.22727273 245.68181818 11.22727273 245.68181818 10 242 C8.35666496 240.96210419 6.68756133 239.96432076 5 239 C3.1875 237.5 3.1875 237.5 2 236 C2 235.01 2 234.02 2 233 C1.34 233 0.68 233 0 233 C-3.10946654 230.42497302 -4.34574042 227.36344054 -5.9375 223.7421875 C-6.95176998 221.65758182 -6.95176998 221.65758182 -10 221 C-10 219.68 -10 218.36 -10 217 C-7.5 215.25 -7.5 215.25 -5 214 C-5.33 213.01 -5.66 212.02 -6 211 C-8.27828358 210.32676943 -10.52016277 210.0509564 -12.87109375 209.72265625 C-15 209 -15 209 -16.07983398 207.23901367 C-17.02648857 204.93554612 -17.48593805 202.91278037 -17.8515625 200.453125 C-18.04492188 199.18662109 -18.04492188 199.18662109 -18.2421875 197.89453125 C-18.36851563 197.02183594 -18.49484375 196.14914062 -18.625 195.25 C-18.7590625 194.36183594 -18.893125 193.47367188 -19.03125 192.55859375 C-19.36023003 190.3732264 -19.68292466 188.18712086 -20 186 C-17.69 185.67 -15.38 185.34 -13 185 C-12.94832473 182.57732914 -12.94832473 182.57732914 -14 180 C-17.47307328 178.13016255 -17.47307328 178.13016255 -21 177 C-21 173.7 -21 170.4 -21 167 C-20.34 167 -19.68 167 -19 167 C-19.185625 166.030625 -19.37125 165.06125 -19.5625 164.0625 C-20.20268605 159.65333132 -19.84320574 155.36593193 -19 151 C-18.67 150.67 -18.34 150.34 -18 150 C-17.52458119 147.89457385 -17.05403526 145.7879175 -16.609375 143.67578125 C-15.96635294 140.85225489 -15.1815046 138.09341918 -14.375 135.3125 C-13.28068485 131.41126651 -12.78542495 128.07692587 -13 124 C-12.505 123.505 -12.505 123.505 -12 123 C-12.0825 121.906875 -12.165 120.81375 -12.25 119.6875 C-12.1675 118.470625 -12.085 117.25375 -12 116 C-9.625 113.9375 -9.625 113.9375 -7 112 C-6.649375 110.948125 -6.29875 109.89625 -5.9375 108.8125 C-5.628125 107.884375 -5.31875 106.95625 -5 106 C-3 105.3125 -3 105.3125 -1 105 C-0.34 104.01 0.32 103.02 1 102 C1.66 102 2.32 102 3 102 C3 101.34 3 100.68 3 100 C4.30693833 98.64078414 5.64946454 97.31590635 7 96 C8.75718834 93.98188346 10.49220834 91.94672603 12.21875 89.90234375 C14.02332034 87.97509428 15.7952727 86.4502407 18 85 C18.66 85 19.32 85 20 85 C20.495 83.515 20.495 83.515 21 82 C22.65 82 24.3 82 26 82 C26 81.34 26 80.68 26 80 C26.99 79.34 27.98 78.68 29 78 C29.36362818 75.79274927 29.36362818 75.79274927 29.1875 73.375 C29.16042969 72.55773437 29.13335937 71.74046875 29.10546875 70.8984375 C29.07066406 70.27195312 29.03585938 69.64546875 29 69 C28.34 69 27.68 69 27 69 C26.69707031 68.05640625 26.39414063 67.1128125 26.08203125 66.140625 C23.73819596 58.92482562 21.24187881 51.85711025 18.23828125 44.8828125 C17.41754983 42.97208761 16.62281949 41.04996853 15.85546875 39.1171875 C9.23701722 21.48442655 9.23701722 21.48442655 -4 9 C-3.69320312 8.39671875 -3.38640625 7.7934375 -3.0703125 7.171875 C-1.91387937 4.82524427 -0.947866 2.4373697 0 0 Z " fill="#FEFEFE" transform="translate(132,108)"/>
<path d="M0 0 C1.98 0.33 3.96 0.66 6 1 C6 1.66 6 2.32 6 3 C7.2375 2.814375 8.475 2.62875 9.75 2.4375 C12.76279577 2.05288777 15.10010827 1.9125406 18 3 C18 3.66 18 4.32 18 5 C22.29 5 26.58 5 31 5 C31 5.66 31 6.32 31 7 C31.64066406 6.91621094 32.28132813 6.83242188 32.94140625 6.74609375 C38.25062969 6.12101379 42.69647232 6.17703881 48 7 C51.04769643 7 54.08675719 6.93874165 57.1328125 6.83984375 C60.15877654 7.00886899 62.26995993 7.72498129 65 9 C65 8.34 65 7.68 65 7 C65.61746094 7.01160156 66.23492187 7.02320313 66.87109375 7.03515625 C71.97195626 7.08950334 76.88988094 6.86068997 81.94921875 6.22265625 C84.63944828 5.93057419 87.29724602 5.93069862 90 6 C90 5.34 90 4.68 90 4 C90.87140625 4.02320313 91.7428125 4.04640625 92.640625 4.0703125 C99.74204178 4.17790972 106.31617037 3.77259224 113.2890625 2.4453125 C116.92085402 1.84873579 120.32876145 1.85879852 124 2 C124 1.34 124 0.68 124 0 C125.65 0 127.3 0 129 0 C129 0.66 129 1.32 129 2 C129.99 2 130.98 2 132 2 C132.26554688 2.63808594 132.53109375 3.27617187 132.8046875 3.93359375 C133.33449219 5.17302734 133.33449219 5.17302734 133.875 6.4375 C134.39707031 7.67306641 134.39707031 7.67306641 134.9296875 8.93359375 C135.8244937 11.15746715 135.8244937 11.15746715 138 12 C138.309375 12.78375 138.61875 13.5675 138.9375 14.375 C139.75560721 16.97773706 139.75560721 16.97773706 141.3984375 18.19140625 C143.80587888 20.91005346 144.62154546 24.15853036 145.6875 27.5625 C145.91244141 28.24763672 146.13738281 28.93277344 146.36914062 29.63867188 C148 34.68987462 148 34.68987462 148 37 C148.66 37 149.32 37 150 37 C150.27263672 37.8353125 150.27263672 37.8353125 150.55078125 38.6875 C152.02348464 43.15847643 153.56018244 47.58826972 155.25390625 51.98046875 C155.50011719 52.64691406 155.74632812 53.31335938 156 54 C156.32613281 54.87269531 156.65226563 55.74539063 156.98828125 56.64453125 C160.4819125 68.23151675 161.27769302 80.77337943 161.3125 92.8125 C161.31781738 93.71226562 161.32313477 94.61203125 161.32861328 95.5390625 C161.23402967 104.3934158 159.17946607 111.33137092 155.1875 119.1875 C154.85685547 119.87263672 154.52621094 120.55777344 154.18554688 121.26367188 C151.37347896 126.87161538 148.0070984 131.55266361 142 134 C142 134.66 142 135.32 142 136 C139.6640625 137.7265625 139.6640625 137.7265625 136.625 139.625 C135.62726563 140.25664063 134.62953125 140.88828125 133.6015625 141.5390625 C131 143 131 143 129 143 C129.33 140.69 129.66 138.38 130 136 C124.59212615 137.09786425 124.59212615 137.09786425 121 141 C120.34 141 119.68 141 119 141 C118.34 142.32 117.68 143.64 117 145 C114.03 144.01 114.03 144.01 111 143 C111.51363807 139.23332085 112.26269051 136.35879836 114 133 C114 132.01 114 131.02 114 130 C112.02 129.67 110.04 129.34 108 129 C107.690625 129.61875 107.38125 130.2375 107.0625 130.875 C106.375 132.25 105.6875 133.625 105 135 C104.34 135 103.68 135 103 135 C98.24202645 120.72607934 103.90913696 103.89256539 110.09765625 90.96875 C111.72113141 87.42662237 112.82099332 83.70816616 114 80 C114.56018677 78.31173069 115.12262491 76.62420645 115.6875 74.9375 C115.93886719 74.18339844 116.19023437 73.42929687 116.44921875 72.65234375 C116.63097656 72.10707031 116.81273437 71.56179688 117 71 C117.66 71 118.32 71 119 71 C118.7834375 69.0509375 118.7834375 69.0509375 118.5625 67.0625 C118.48128906 66.33160156 118.40007812 65.60070312 118.31640625 64.84765625 C118.18113386 62.98859771 118.18113386 62.98859771 117 62 C115.33382885 61.95936168 113.66611905 61.957279 112 62 C107.94903826 69.87150051 107.94903826 69.87150051 104.3125 77.9375 C103 81 103 81 101.5 83.375 C99.82243669 86.31073579 98.88718165 89.15657965 97.88671875 92.375 C97 95 97 95 95.76953125 97.875 C90.90697516 109.28275623 87.91006552 123.67962431 91 136 C92.33482348 139.24790985 93.79241068 142.25646414 96 145 C96.99 145.33 97.98 145.66 99 146 C99.29519531 146.79664063 99.59039062 147.59328125 99.89453125 148.4140625 C100.77524677 151.12134985 100.77524677 151.12134985 103.07421875 152.3984375 C111.30288495 155.47342487 118.39627283 155.31414632 127 154 C127.33 153.67 127.66 153.34 128 153 C129.27875 152.87625 130.5575 152.7525 131.875 152.625 C135.38010928 152.2272571 136.68994589 151.73006395 139 149 C140.03125 148.505 141.0625 148.01 142.125 147.5 C145.29636171 146.26893492 145.29636171 146.26893492 146 143 C147.65438613 142.30341637 149.32254318 141.63903117 151 141 C151.53625 140.46375 152.0725 139.9275 152.625 139.375 C153.07875 138.92125 153.5325 138.4675 154 138 C154.99 138 155.98 138 157 138 C157 137.01 157 136.02 157 135 C159 133.3125 159 133.3125 161 132 C160.96744792 133.953125 160.93489583 135.90625 160.90234375 137.859375 C160.91847803 139.9641892 160.91847803 139.9641892 161.49560547 141.78417969 C162.58411611 146.56603958 162.19084452 151.61901342 162.1875 156.5 C162.18669434 157.7080127 162.18588867 158.91602539 162.18505859 160.16064453 C162.11502163 170.54122127 161.37230865 180.71612641 160 191 C159.84402344 192.19625 159.68804687 193.3925 159.52734375 194.625 C156.55686656 215.39337833 156.55686656 215.39337833 152.1015625 224.45703125 C150.60613645 227.9092382 149.57582817 231.46120731 148.5 235.0625 C146.79965163 240.69364222 145.00559317 245.92158396 142 251 C141.34 251.33 140.68 251.66 140 252 C139.71125 252.7425 139.4225 253.485 139.125 254.25 C137.82501188 257.42774874 136.24325698 259.39297161 134 262 C133.42378906 262.6909375 132.84757813 263.381875 132.25390625 264.09375 C131.63386719 264.8259375 131.01382813 265.558125 130.375 266.3125 C129.48941406 267.35857422 129.48941406 267.35857422 128.5859375 268.42578125 C127 270 127 270 125 270 C125 270.66 125 271.32 125 272 C121.81237635 274.12508244 119.73487777 274.5020163 116 275 C115.67 272.36 115.34 269.72 115 267 C113.68 266.67 112.36 266.34 111 266 C110.34 268.64 109.68 271.28 109 274 C105.80113168 273.06230828 104.32411288 272.50333809 102.48828125 269.65234375 C102.10027344 268.75644531 101.71226562 267.86054687 101.3125 266.9375 C99.92864394 263.25394643 99.92864394 263.25394643 97 261 C93.64822119 249.5758743 93.12515724 237.28297809 92.09008789 225.47387695 C91.97656982 224.2230835 91.86305176 222.97229004 91.74609375 221.68359375 C91.64997803 220.56525146 91.5538623 219.44690918 91.45483398 218.29467773 C90.95720148 214.68998063 90.07388185 211.47189714 89 208 C87.19196899 208.00785522 87.19196899 208.00785522 85.34741211 208.01586914 C80.85409291 208.03403754 76.36077693 208.04547515 71.86743164 208.05493164 C69.92667087 208.05994485 67.98591384 208.06675712 66.04516602 208.07543945 C63.24754916 208.08763732 60.44998245 208.09325855 57.65234375 208.09765625 C56.36129982 208.10539818 56.36129982 208.10539818 55.04417419 208.11329651 C50.25777012 208.11373722 45.74240482 207.7312509 41 207 C38.21352443 207.20435808 38.21352443 207.20435808 36 208 C35.67 208.66 35.34 209.32 35 210 C35.66 210 36.32 210 37 210 C37.33 211.98 37.66 213.96 38 216 C38.66 216 39.32 216 40 216 C39.71893488 219.81335775 39.42319913 223.62544689 39.125 227.4375 C39.04636719 228.50677734 38.96773438 229.57605469 38.88671875 230.67773438 C38.38711035 236.9612708 37.53069324 242.88365852 36 249 C35.34 249 34.68 249 34 249 C33.62875 250.3921875 33.62875 250.3921875 33.25 251.8125 C28.65263934 267.62999263 28.65263934 267.62999263 23 273 C20.6875 273.875 20.6875 273.875 19 274 C17.02 270.535 17.02 270.535 15 267 C14.01 267 13.02 267 12 267 C11.67 269.64 11.34 272.28 11 275 C3.35130967 272.91399355 -1.38157861 265.78449939 -5.73828125 259.6015625 C-6.9266919 257.85922143 -6.9266919 257.85922143 -9 257 C-9.96484375 254.9609375 -9.96484375 254.9609375 -10.9375 252.375 C-12.08522962 249.37389959 -13.25176641 246.43604324 -14.5625 243.5 C-16.05876699 239.85691516 -17.18352362 236.21533454 -18.25390625 232.4296875 C-18.97350726 229.95731781 -18.97350726 229.95731781 -20.03125 227.47265625 C-23.07932109 219.6927006 -23.51534506 210.73040689 -24.6875 202.5 C-24.8311499 201.51974854 -24.9747998 200.53949707 -25.12280273 199.52954102 C-25.25114502 198.60197998 -25.3794873 197.67441895 -25.51171875 196.71875 C-25.62990967 195.88279297 -25.74810059 195.04683594 -25.86987305 194.18554688 C-26 192 -26 192 -25 189 C-25.66 189 -26.32 189 -27 189 C-27 175.8 -27 162.6 -27 149 C-26.34 149 -25.68 149 -25 149 C-24.67 149.66 -24.34 150.32 -24 151 C-19.48423753 153.71902188 -15.51817552 154.55522457 -10.3125 155.125 C-3.22869955 155.92376682 -3.22869955 155.92376682 0 157 C0 156.34 0 155.68 0 155 C2.64 155 5.28 155 8 155 C8 154.34 8 153.68 8 153 C11.96 152.01 11.96 152.01 16 151 C16.33 149.68 16.66 148.36 17 147 C17.66 147 18.32 147 19 147 C19 146.34 19 145.68 19 145 C20 144 21 143 22 142 C22.515625 141.113125 23.03125 140.22625 23.5625 139.3125 C24.036875 138.549375 24.51125 137.78625 25 137 C25.66 137 26.32 137 27 137 C30.20635105 118.10852626 25.31737121 98.48687915 17.8984375 81.15625 C16.97748341 78.9459602 16.2448793 76.71218518 15.5 74.4375 C15.005 73.303125 14.51 72.16875 14 71 C12.05618399 70.14285751 12.05618399 70.14285751 10 70 C8.00488226 70.82499353 8.00488226 70.82499353 7 73 C7.15362762 81.29589138 10.3885852 89.24540728 13.02734375 97.03125 C17.16472507 109.65940183 20.21298001 124.57403998 14 137 C12.078125 136.66015625 12.078125 136.66015625 10 136 C8.75 133.4375 8.75 133.4375 8 131 C6.35 131.33 4.7 131.66 3 132 C1.63115642 136.51718381 2.52924754 139.58774263 4 144 C3 145 3 145 0.1875 145.375 C-3 145 -3 145 -5.1875 142.8125 C-6.36232507 140.98949559 -7.49110771 139.13565044 -8.5625 137.25 C-9.86159181 134.69658149 -9.86159181 134.69658149 -13 134 C-13.33 136.97 -13.66 139.94 -14 143 C-22.37038719 140.26381016 -27.47511571 132.51687609 -31.4375 125 C-35.63394939 116.58318983 -36.33212131 107.7660214 -36.25 98.5 C-36.25773438 97.62730469 -36.26546875 96.75460937 -36.2734375 95.85546875 C-36.25511483 89.67156917 -35.34384368 84.01961881 -34 78 C-33.67226128 76.29934586 -33.35066465 74.59749679 -33.03515625 72.89453125 C-32.7109375 71.20052083 -32.38671875 69.50651042 -32.0625 67.8125 C-31.90587891 66.96236328 -31.74925781 66.11222656 -31.58789062 65.23632812 C-30.59396781 60.10831995 -29.18141125 55.74219836 -27 51 C-26.4740625 49.1128125 -26.4740625 49.1128125 -25.9375 47.1875 C-25 44 -25 44 -23 42 C-22.67 40.989375 -22.34 39.97875 -22 38.9375 C-21 36 -21 36 -19 35 C-18.87625 34.113125 -18.7525 33.22625 -18.625 32.3125 C-17.88251748 28.37734266 -16.33286436 26.2248419 -14 23 C-12.35573302 20.36917283 -10.9189172 17.82309208 -9.625 15 C-8 12 -8 12 -5.5 9.5625 C-2.50322252 6.49080308 -1.48528111 3.98680718 0 0 Z " fill="#FEFEFE" transform="translate(201,399)"/>
<path d="M0 0 C1.2518811 -0.00688843 1.2518811 -0.00688843 2.52905273 -0.01391602 C8.50304771 0.00152386 8.50304771 0.00152386 10.75 1.125 C12.85416952 1.1455428 14.95891853 1.11631799 17.0625 1.0625 C23.15335237 1.01252378 28.85080198 1.58105544 34.84375 2.62109375 C37.27365552 3.04240801 39.67421974 3.36578286 42.125 3.625 C51.02410025 4.8524621 60.79974776 7.87474582 68.75 12.125 C68.75 12.785 68.75 13.445 68.75 14.125 C69.74 14.455 70.73 14.785 71.75 15.125 C73.75959612 19.5010364 73.98872719 23.28243345 72.6875 27.875 C67.17751542 37.11755477 57.9640913 41.1450011 47.85522461 43.86572266 C34.27974188 47.25026395 20.71241826 48.74481313 6.75 49.125 C5.50863281 49.15899902 4.26726562 49.19299805 2.98828125 49.22802734 C-18.00473111 49.74466276 -37.87680928 49.07116323 -58.11499023 42.78369141 C-59.83553809 42.25286944 -61.57213703 41.77422895 -63.3125 41.3125 C-69.11834753 38.96545525 -73.9565691 36.14123053 -77.375 30.8125 C-78.46969128 26.19915816 -79.03099577 22.60929292 -77.25 18.125 C-66.10426778 4.72868723 -42.70542474 2.80759043 -26.51196289 1.32177734 C-25.39229126 1.22437256 -25.39229126 1.22437256 -24.25 1.125 C-22.58130859 0.96837891 -22.58130859 0.96837891 -20.87890625 0.80859375 C-13.91011294 0.2493148 -6.989753 0.02174619 0 0 Z " fill="#111211" transform="translate(271.25,53.875)"/>
<path d="M0 0 C2.875 1.75 2.875 1.75 5 4 C5.7425 4.556875 6.485 5.11375 7.25 5.6875 C9.52814754 8.69790925 9.5616478 11.07701211 9.7265625 14.78125 C9.85861902 17.01464509 9.85861902 17.01464509 11.0078125 18.78515625 C12.48886447 22.09128408 12.29534372 25.38176413 12.25 28.9375 C12.24395752 29.69240723 12.23791504 30.44731445 12.23168945 31.22509766 C12.0464779 41.84613818 10.05215656 51.84649252 7 62 C6.01 62 5.02 62 4 62 C3.79375 62.99 3.5875 63.98 3.375 65 C2.23115336 69.06518159 0.06209767 71.876108 -2.55078125 75.140625 C-4.14502863 77.09207398 -4.14502863 77.09207398 -5.625 79.875 C-7.22206657 82.34319379 -8.40626656 82.74243227 -11 84 C-11.556875 84.721875 -12.11375 85.44375 -12.6875 86.1875 C-17.37888575 91.89323942 -23.80872768 96.04812405 -30 100 C-30.68449219 100.44601562 -31.36898437 100.89203125 -32.07421875 101.3515625 C-32.79222656 101.81304688 -33.51023437 102.27453125 -34.25 102.75 C-34.91515625 103.17796875 -35.5803125 103.6059375 -36.265625 104.046875 C-38 105 -38 105 -40 105 C-40 105.66 -40 106.32 -40 107 C-41.19238281 107.40992188 -42.38476562 107.81984375 -43.61328125 108.2421875 C-45.17976484 108.78623569 -46.74616686 109.3305188 -48.3125 109.875 C-49.09818359 110.14441406 -49.88386719 110.41382813 -50.69335938 110.69140625 C-51.45068359 110.95566406 -52.20800781 111.21992187 -52.98828125 111.4921875 C-53.68477783 111.73308105 -54.38127441 111.97397461 -55.09887695 112.22216797 C-57.27132303 113.03765424 -57.27132303 113.03765424 -60 115 C-63.41796875 115.48828125 -63.41796875 115.48828125 -67 115 C-69.36328125 112.48046875 -69.36328125 112.48046875 -71.3125 109.1875 C-71.96863281 108.10855469 -72.62476563 107.02960938 -73.30078125 105.91796875 C-73.86152344 104.95503906 -74.42226563 103.99210938 -75 103 C-76.72226496 99.75150023 -76.72226496 99.75150023 -80 99 C-79.67 100.98 -79.34 102.96 -79 105 C-78.34 105 -77.68 105 -77 105 C-76.7525 106.27875 -76.505 107.5575 -76.25 108.875 C-75.48009414 112.26747318 -75.48009414 112.26747318 -72.875 114.5 C-72.25625 114.665 -71.6375 114.83 -71 115 C-71.33 115.66 -71.66 116.32 -72 117 C-74.625 117.125 -74.625 117.125 -78 116 C-80.41819169 112.89428322 -82.1840493 109.48313709 -84 106 C-86.23559586 101.27365979 -86.23559586 101.27365979 -90 98 C-89.79503906 98.73605469 -89.59007812 99.47210937 -89.37890625 100.23046875 C-89.10949219 101.20628906 -88.84007812 102.18210937 -88.5625 103.1875 C-88.29566406 104.15042969 -88.02882813 105.11335937 -87.75390625 106.10546875 C-87.07119982 108.72663697 -86.50107805 111.338935 -86 114 C-84.515 114.495 -84.515 114.495 -83 115 C-83.33 115.66 -83.66 116.32 -84 117 C-86.54278024 116.65638105 -88.49485673 116.34971457 -90.625 114.875 C-92 113 -92 113 -93.5 109.4375 C-94.72023305 105.79596415 -94.72023305 105.79596415 -98 104 C-97.52269162 105.4589426 -97.04308958 106.91713496 -96.5625 108.375 C-96.29566406 109.18710937 -96.02882813 109.99921875 -95.75390625 110.8359375 C-95.04820271 113.01031799 -95.04820271 113.01031799 -94 115 C-95.98 114.67 -97.96 114.34 -100 114 C-100 113.34 -100 112.68 -100 112 C-100.66 112 -101.32 112 -102 112 C-101.855625 110.865625 -101.71125 109.73125 -101.5625 108.5625 C-101.37474666 107.04169792 -101.18726097 105.52086278 -101 104 C-100.85691406 102.88431641 -100.85691406 102.88431641 -100.7109375 101.74609375 C-100.10772324 96.79111949 -99.90924409 91.99157504 -100 87 C-94.66076604 86.35560969 -89.37122306 85.91045546 -84 85.625 C-74.22815566 84.92402187 -67.1316238 81.73575655 -58.50390625 77.20703125 C-56 76 -56 76 -54 76 C-53.79375 75.443125 -53.5875 74.88625 -53.375 74.3125 C-51.42316968 71.02987629 -49.05769006 69.29326754 -46 67 C-45.34 67 -44.68 67 -44 67 C-43.79375 66.34 -43.5875 65.68 -43.375 65 C-41.50536694 60.92080059 -39.03865394 57.30927197 -36 54 C-35.01 53.67 -34.02 53.34 -33 53 C-32.814375 51.7934375 -32.814375 51.7934375 -32.625 50.5625 C-32.41875 49.716875 -32.2125 48.87125 -32 48 C-31.34 47.67 -30.68 47.34 -30 47 C-29.32215008 44.66989091 -28.65583207 42.33640176 -28 40 C-27.01 39.01 -27.01 39.01 -26 38 C-25.39474956 35.93659814 -25.39474956 35.93659814 -25 33.625 C-24.40026522 30.42284463 -23.56865785 27.86280057 -22 25 C-22.66 25 -23.32 25 -24 25 C-23.67 24.484375 -23.34 23.96875 -23 23.4375 C-21.77071684 20.89927142 -21.77071684 20.89927142 -22.0625 17.5 C-22 14 -22 14 -20.625 11.5625 C-19 10 -19 10 -17 10 C-16.95875 9.0925 -16.9175 8.185 -16.875 7.25 C-16 4 -16 4 -13.5625 1.625 C-8.90495621 -0.49949366 -5.04219009 -0.84458795 0 0 Z " fill="#FCFDFD" transform="translate(472,492)"/>
<path d="M0 0 C0.87011719 0.00451172 1.74023438 0.00902344 2.63671875 0.01367188 C4.75784293 0.0253264 6.8789311 0.04325643 9 0.0625 C9 0.7225 9 1.3825 9 2.0625 C9.969375 2.206875 10.93875 2.35125 11.9375 2.5 C15 3.0625 15 3.0625 16 4.0625 C15.92202131 8.74122129 15.8342147 11.06144236 12.8125 14.6875 C5.34053252 20.01690331 -4.17199133 23.14028609 -13.01171875 25.32421875 C-15.28682698 26.16900354 -16.42336934 27.24562086 -18 29.0625 C-16.23002526 29.87686868 -14.45898848 30.6889294 -12.6875 31.5 C-11.70136719 31.95246094 -10.71523438 32.40492188 -9.69921875 32.87109375 C-6.98434301 34.11981992 -6.98434301 34.11981992 -4 35.0625 C-2.74053506 36.54802275 -1.48380261 38.03670641 -0.2734375 39.5625 C1.27936439 41.39156726 3.00854376 42.73486251 5 44.0625 C3.83143003 47.33449592 2.04819737 49.41442613 -0.921875 51.23828125 C-8.8672054 54.38953071 -17.87383041 53.09164236 -26.02734375 51.53515625 C-30.51567431 50.82150579 -34.63552255 50.71958386 -39 52.0625 C-36.56812096 55.0502371 -34.19712751 57.87018047 -31.4375 60.5625 C-28.79312856 63.27467583 -26.77875785 65.7102256 -25 69.0625 C-25.25 72.4375 -25.25 72.4375 -26 75.0625 C-34.3123536 77.46513834 -42.13254311 76.23809169 -50 73.0625 C-51.52015244 72.49816247 -53.04095406 71.93556956 -54.5625 71.375 C-55.696875 70.941875 -56.83125 70.50875 -58 70.0625 C-58.147866 74.2766811 -58.2099635 77.39555712 -56.9375 81.4375 C-55.73530375 86.08599216 -55.78562002 90.40058491 -57 95.0625 C-58.1484375 96.875 -58.1484375 96.875 -60 98.0625 C-62.99609375 98.171875 -62.99609375 98.171875 -66.4375 97.8125 C-67.57058594 97.70421875 -68.70367187 97.5959375 -69.87109375 97.484375 C-75.00889193 96.79163817 -75.00889193 96.79163817 -77 96.0625 C-78.1875 93.5625 -78.1875 93.5625 -79 91.0625 C-79.33 90.7325 -79.66 90.4025 -80 90.0625 C-80.40426348 87.47757439 -80.75393278 84.90903604 -81.0625 82.3125 C-81.15337891 81.59578125 -81.24425781 80.8790625 -81.33789062 80.140625 C-81.79173374 76.42798356 -82.1104536 72.80319516 -82 69.0625 C-80.98873047 69.53816406 -80.98873047 69.53816406 -79.95703125 70.0234375 C-76.46775527 71.24952391 -73.37559942 71.48069069 -69.6875 71.6875 C-68.43324219 71.76226562 -67.17898438 71.83703125 -65.88671875 71.9140625 C-64.45779297 71.98753906 -64.45779297 71.98753906 -63 72.0625 C-63 71.4025 -63 70.7425 -63 70.0625 C-61.86179976 69.15077838 -60.68892199 68.28201205 -59.5 67.4375 C-56.70594587 65.17843759 -56.70594587 65.17843759 -55.53515625 61.890625 C-55.5260525 59.44356618 -55.5260525 59.44356618 -56 56.0625 C-58.31 55.7325 -60.62 55.4025 -63 55.0625 C-62.87625 56.42375 -62.87625 56.42375 -62.75 57.8125 C-63 61.0625 -63 61.0625 -64.5625 63.375 C-67.75874115 65.58778234 -70.13776909 65.92456318 -74 66.0625 C-76 65.1875 -76 65.1875 -78 64.0625 C-80.32495277 63.67500787 -82.65851268 63.33267161 -85 63.0625 C-85.26554687 62.31484375 -85.53109375 61.5671875 -85.8046875 60.796875 C-86.15789062 59.81203125 -86.51109375 58.8271875 -86.875 57.8125 C-87.39707031 56.35070312 -87.39707031 56.35070312 -87.9296875 54.859375 C-88.91556142 52.13216911 -88.91556142 52.13216911 -90.09765625 49.921875 C-91.47107224 47.09180569 -91.61236513 44.16357896 -92 41.0625 C-92.31780151 39.72537955 -92.64750867 38.39089706 -93 37.0625 C-92.09121094 36.76859375 -92.09121094 36.76859375 -91.1640625 36.46875 C-82.41942044 33.34758545 -75.94170927 28.16056144 -69.5 21.5625 C-68.675 20.7375 -67.85 19.9125 -67 19.0625 C-66.34 19.0625 -65.68 19.0625 -65 19.0625 C-65 18.4025 -65 17.7425 -65 17.0625 C-64.34 17.0625 -63.68 17.0625 -63 17.0625 C-63 16.4025 -63 15.7425 -63 15.0625 C-53.5232714 8.71445214 -43.40138794 5.93117813 -32.3125 3.8125 C-31.04599609 3.55726563 -29.77949219 3.30203125 -28.47460938 3.0390625 C-18.86868937 1.13093411 -9.79912483 -0.09784072 0 0 Z " fill="#FDFDFD" transform="translate(453,387.9375)"/>
<path d="M0 0 C2.6572707 0.2776253 5.31463105 0.44585687 7.98046875 0.62109375 C11.47092564 1.05909416 14.63241284 1.98716434 18 3 C20.45799211 3.6263406 22.91633322 4.25131304 25.375 4.875 C34.39636803 7.26686123 41.22041283 9.47974656 47.58984375 16.51171875 C48.95069389 18.11771138 48.95069389 18.11771138 51 19 C51 19.66 51 20.32 51 21 C51.66 21 52.32 21 53 21 C53.639375 21.66 54.27875 22.32 54.9375 23 C56.88012332 25.34807292 56.88012332 25.34807292 60 25 C60 26.32 60 27.64 60 29 C61.485 29.495 61.485 29.495 63 30 C63.33 30.66 63.66 31.32 64 32 C65.88263881 32.90343684 65.88263881 32.90343684 68.0625 33.625 C68.79597656 33.88539063 69.52945313 34.14578125 70.28515625 34.4140625 C70.85105469 34.60742188 71.41695313 34.80078125 72 35 C71 42.42857143 71 42.42857143 70 46 C69.34 46 68.68 46 68 46 C68 47.65 68 49.3 68 51 C67.01 51.495 67.01 51.495 66 52 C65.08968728 54.34386809 65.08968728 54.34386809 64.375 57.0625 C64.11460937 57.98160156 63.85421875 58.90070313 63.5859375 59.84765625 C63.39257812 60.55792969 63.19921875 61.26820313 63 62 C62.38125 61.814375 61.7625 61.62875 61.125 61.4375 C58.95839822 60.76313824 58.95839822 60.76313824 57 62 C49.96829971 62.69164265 49.96829971 62.69164265 45.9375 59.8125 C44 57 44 57 44.1875 54.1875 C44.5896875 53.1046875 44.5896875 53.1046875 45 52 C44.30132812 51.97421875 43.60265625 51.9484375 42.8828125 51.921875 C41.51769531 51.83679688 41.51769531 51.83679688 40.125 51.75 C39.22007812 51.70359375 38.31515625 51.6571875 37.3828125 51.609375 C35 51 35 51 33.625 49.125 C32.76268894 46.19314241 33.666677 44.666646 35 42 C31.83478709 39.88985806 30.30969626 39.64682515 26.625 39.1875 C22.87535941 38.53690011 21.0423057 38.0282038 17.8125 35.875 C15.24450362 31.80162643 15.31841928 29.77106503 16 25 C17.9375 22.75 17.9375 22.75 20 21 C20.7872678 18.8618034 20.7872678 18.8618034 21 17 C15.12391964 17.11108108 15.12391964 17.11108108 10.5 20.375 C8.4789731 25.25914834 8.15650778 29.77946705 9 35 C10.44102134 38.28021963 11.33903024 39.66598322 14.55859375 41.29296875 C15.98365234 41.73576172 15.98365234 41.73576172 17.4375 42.1875 C24.40856031 44.41634241 24.40856031 44.41634241 27 46 C27.5625 48.3125 27.5625 48.3125 28 51 C30.04112031 55.08224061 32.63590562 57.93493623 36 61 C36.55429688 61.50917969 37.10859375 62.01835937 37.6796875 62.54296875 C43.23110929 67.20754515 48.95848328 68.66211182 56 70 C56.495 68.515 56.495 68.515 57 67 C58.98 67.495 58.98 67.495 61 68 C60.60167969 69.09054687 60.60167969 69.09054687 60.1953125 70.203125 C58.28221196 75.64917762 56.79017364 80.76338843 56.0625 86.5 C55.50088706 90.07560236 55.17462395 91.75214665 53.0625 94.75 C48.44293972 96.63553481 43.92615296 96.48388942 39 96 C38.34 95.67 37.68 95.34 37 95 C37 94.34 37 93.68 37 93 C35.02 92.505 35.02 92.505 33 92 C32.36976081 84.63320414 33.08725709 79.62688019 36.80859375 73.19140625 C37.9434103 71.10408794 38.54050487 69.31860186 39 67 C37.53984709 67.28241641 36.08190207 67.57626614 34.625 67.875 C33.81289062 68.03742188 33.00078125 68.19984375 32.1640625 68.3671875 C29.81326077 68.86658932 29.81326077 68.86658932 28 71 C25.375 71.125 25.375 71.125 23 71 C23 71.66 23 72.32 23 73 C19.82606311 74.58696844 16.41825795 74.1431447 12.9375 74.125 C12.19177734 74.12886719 11.44605469 74.13273437 10.67773438 74.13671875 C5.12663501 74.12663501 5.12663501 74.12663501 4 73 C3.37819634 70.07752278 3.19558182 68.81799325 4 66 C7.14692726 61.72870858 10.85036411 57.99920991 14.73046875 54.390625 C16.2561044 52.9084828 16.2561044 52.9084828 17 50 C16.34 50 15.68 50 15 50 C15 49.34 15 48.68 15 48 C13.24970238 48.31082872 11.49977306 48.62373179 9.75 48.9375 C8.77546875 49.11152344 7.8009375 49.28554688 6.796875 49.46484375 C4.50278205 49.90379729 2.25708029 50.40348592 0 51 C0 50.34 0 49.68 0 49 C-0.52980469 49.33515625 -1.05960938 49.6703125 -1.60546875 50.015625 C-8.204356 52.72838126 -17.43679654 50.28948958 -24 48 C-24 46.68 -24 45.36 -24 44 C-24.66 44 -25.32 44 -26 44 C-25.33972375 38.89993514 -21.76981493 36.88417983 -17.9140625 33.90625 C-13.33498162 30.91081908 -7.59880883 28 -2 28 C-2 26.35 -2 24.7 -2 23 C-3.134375 22.81824219 -4.26875 22.63648438 -5.4375 22.44921875 C-6.95840377 22.19573479 -8.47923322 21.94180459 -10 21.6875 C-10.74378906 21.56955078 -11.48757812 21.45160156 -12.25390625 21.33007812 C-21.16791673 19.818572 -29.17187421 17.33589962 -35 10 C-36.02131283 7.08346748 -36.05357833 5.16112124 -36 2 C-35 0 -35 0 -33.40234375 -0.5859375 C-23.90903863 -2.22218196 -8.72596747 -4.36298373 0 0 Z " fill="#FBFBFB" transform="translate(99,390)"/>
<path d="M0 0 C1.26023483 -0.00151062 1.26023483 -0.00151062 2.54592896 -0.00305176 C46.92426483 0.03284322 46.92426483 0.03284322 60.75 9.25 C60.25 11.5625 60.25 11.5625 58.75 14.25 C38.04963905 24.60018048 5.52456765 25.96313119 -17.25 24.25 C-17.58 23.92 -17.91 23.59 -18.25 23.25 C-19.85753245 23.03484055 -21.47312588 22.87914141 -23.08984375 22.75 C-24.07017578 22.6675 -25.05050781 22.585 -26.06054688 22.5 C-27.09244141 22.4175 -28.12433594 22.335 -29.1875 22.25 C-31.21775131 22.08707074 -33.24772084 21.92057894 -35.27734375 21.75 C-36.18218506 21.6778125 -37.08702637 21.605625 -38.01928711 21.53125 C-40.25 21.25 -40.25 21.25 -42.25 20.25 C-43.78668865 20.02532169 -45.32968054 19.84203195 -46.875 19.6875 C-47.69226563 19.60371094 -48.50953125 19.51992187 -49.3515625 19.43359375 C-50.29128906 19.34271484 -50.29128906 19.34271484 -51.25 19.25 C-51.25 18.59 -51.25 17.93 -51.25 17.25 C-53.56 17.25 -55.87 17.25 -58.25 17.25 C-58.25 16.59 -58.25 15.93 -58.25 15.25 C-59.054375 15.0025 -59.85875 14.755 -60.6875 14.5 C-63.25 13.25 -63.25 13.25 -64.0625 11.125 C-64.124375 10.50625 -64.18625 9.8875 -64.25 9.25 C-60.68281968 7.71277332 -57.27855846 6.73788952 -53.46875 5.99609375 C-51.83486328 5.67415039 -51.83486328 5.67415039 -50.16796875 5.34570312 C-48.47607422 5.01989258 -48.47607422 5.01989258 -46.75 4.6875 C-45.62207031 4.46642578 -44.49414062 4.24535156 -43.33203125 4.01757812 C-41.23285261 3.60643722 -39.13328425 3.19727742 -37.03320312 2.79077148 C-35.24669596 2.44365628 -33.46224234 2.08569669 -31.68066406 1.71411133 C-21.28689337 -0.27047667 -10.53987229 0.00877538 0 0 Z " fill="#FDFDFD" transform="translate(270.25,66.75)"/>
<path d="M0 0 C6.64684782 6.58564296 8.61266186 14.65188884 8.70849609 23.78808594 C8.44355138 38.65410487 8.44355138 38.65410487 6.68359375 40.4140625 C6.64234375 41.4659375 6.60109375 42.5178125 6.55859375 43.6015625 C5.37879907 48.74209646 2.99200664 50.6015019 -1.31640625 53.4140625 C-6.70128125 56.22888353 -12.49228188 55.547801 -18.31640625 54.4140625 C-19.30640625 53.7540625 -20.29640625 53.0940625 -21.31640625 52.4140625 C-21.31640625 51.7540625 -21.31640625 51.0940625 -21.31640625 50.4140625 C-22.30640625 50.0840625 -23.29640625 49.7540625 -24.31640625 49.4140625 C-26.45756574 45.50586604 -26.57366647 42.00745914 -26.58203125 37.609375 C-26.58460938 36.30355469 -26.5871875 34.99773437 -26.58984375 33.65234375 C-26.5856543 32.9763916 -26.58146484 32.30043945 -26.57714844 31.60400391 C-26.5664741 29.55210553 -26.57704724 27.50108955 -26.58984375 25.44921875 C-26.58726562 24.14082031 -26.5846875 22.83242188 -26.58203125 21.484375 C-26.57977539 20.29602051 -26.57751953 19.10766602 -26.57519531 17.88330078 C-26.01241643 10.33887821 -23.53986412 4.78819704 -18.31640625 -0.5859375 C-12.67560914 -3.79093586 -5.38576115 -3.68738453 0 0 Z " fill="#060606" transform="translate(348.31640625,242.5859375)"/>
<path d="M0 0 C5.802148 3.69343783 7.88266156 8.02210338 9.75097656 14.45507812 C10.80972955 19.30313954 10.72880705 24.059433 10.625 29 C10.61984375 29.99322266 10.6146875 30.98644531 10.609375 32.00976562 C10.44785706 47.20254717 10.44785706 47.20254717 5.94921875 52.0234375 C1.22343068 55.89318951 -4.53695527 56.89059722 -10.51953125 56.6640625 C-14.99679024 55.91646823 -17.71167541 53.28728195 -20.71484375 50.08203125 C-26.76380237 41.31165976 -25.27771996 26.32343571 -23.9375 16.125 C-22.77312265 9.93372455 -20.97634859 4.74481898 -15.73046875 0.9375 C-10.07782305 -2.17523798 -5.98788814 -2.78746517 0 0 Z " fill="#080808" transform="translate(202.625,241.6875)"/>
<path d="M0 0 C3.56953664 3.13198054 5.15795689 6.12261971 6.9375 10.5 C7.19055908 11.11584961 7.44361816 11.73169922 7.7043457 12.36621094 C8.22388286 13.63131237 8.73976313 14.89792182 9.25195312 16.16601562 C10.35789332 18.87744604 11.53064718 21.55996874 12.6875 24.25 C18.24534246 37.67846452 18.24534246 37.67846452 18 45 C17.34 45 16.68 45 16 45 C16 45.99 16 46.98 16 48 C15.01 48.495 15.01 48.495 14 49 C14 49.99 14 50.98 14 52 C15.32 52 16.64 52 18 52 C18 53.32 18 54.64 18 56 C18.66 56.33 19.32 56.66 20 57 C19.67 58.32 19.34 59.64 19 61 C16.50160446 60.61807966 15.30301106 60.35022241 13.62109375 58.40625 C13.23050781 57.7771875 12.83992188 57.148125 12.4375 56.5 C10.50827777 53.37762624 10.50827777 53.37762624 7 52 C7.30035156 52.52207031 7.60070312 53.04414063 7.91015625 53.58203125 C11.24554859 60.03799405 11.21815884 64.91614153 10 72 C9.34 72 8.68 72 8 72 C7.67 70.35 7.34 68.7 7 67 C6.34 67 5.68 67 5 67 C4.67 66.01 4.34 65.02 4 64 C1.98491642 63.26676204 1.98491642 63.26676204 0 63 C0 63.66 0 64.32 0 65 C0.99 65.33 1.98 65.66 3 66 C5.25 68.25 5.25 68.25 7 71 C7 74.97893764 5.05897829 77.81836952 3.046875 81.171875 C0.92712475 84.87352842 -0.61765792 88.82748428 -1.9375 92.875 C-3 95 -3 95 -5.125 95.8125 C-5.74375 95.874375 -6.3625 95.93625 -7 96 C-8.96489659 90.99190992 -9.41124647 86.49125945 -9.625 81.1875 C-9.66367188 80.43146484 -9.70234375 79.67542969 -9.7421875 78.89648438 C-10.13286051 70.71328006 -10.08510222 62.62275225 -9.4140625 54.45703125 C-9.35221771 53.6849382 -9.29037292 52.91284515 -9.22665405 52.11735535 C-9.09575015 50.50133711 -8.96288823 48.88547636 -8.828125 47.26977539 C-8.62468476 44.80868648 -8.43321724 42.3468451 -8.2421875 39.88476562 C-8.11270851 38.30462757 -7.98252458 36.72454708 -7.8515625 35.14453125 C-7.79626373 34.4162764 -7.74096497 33.68802155 -7.68399048 32.93769836 C-7.31543732 28.68539779 -6.48291671 24.99607807 -5 21 C-4.65622122 19.4440827 -4.34215155 17.88121205 -4.0625 16.3125 C-3.01122879 10.78701852 -1.54171475 5.40627971 0 0 Z " fill="#FCFCFC" transform="translate(125,125)"/>
<path d="M0 0 C3.76300241 1.48769863 4.3966355 3.76802609 5.98828125 7.34765625 C6.21902344 7.91355469 6.44976562 8.47945313 6.6875 9.0625 C10.83566736 8.65675557 10.83566736 8.65675557 14.4375 6.75 C15.78132624 4.93583457 16.7649519 3.12049191 17.6875 1.0625 C20.25 0.5625 20.25 0.5625 23.6875 1.0625 C25.3984375 2.87890625 25.3984375 2.87890625 27.125 5.125 C28.78976886 7.35036058 28.78976886 7.35036058 30.6875 9.0625 C34.53810367 9.26620117 34.53810367 9.26620117 37.6875 8.0625 C37.996875 6.928125 38.30625 5.79375 38.625 4.625 C39.6875 1.0625 39.6875 1.0625 40.6875 0.0625 C43.125 -0.1875 43.125 -0.1875 45.6875 0.0625 C47.6875 3.0625 47.6875 3.0625 47.625 6.3125 C46.38612315 11.26800741 44.2459449 15.44805154 39.82421875 18.23828125 C35.86948884 19.76378036 31.84793259 19.62863481 27.6875 19.0625 C24.3125 17.0625 24.3125 17.0625 21.6875 15.0625 C20.3675 15.0625 19.0475 15.0625 17.6875 15.0625 C17.15125 15.7225 16.615 16.3825 16.0625 17.0625 C12.77961798 19.82703223 10.28203212 19.63684862 6.09375 19.43359375 C2.47261804 18.87513996 0.9889875 17.92192386 -1.3125 15.0625 C-3.21727185 11.05874427 -4.43346652 7.51409826 -4.0625 3.0625 C-2.94389932 0.07956485 -2.94389932 0.07956485 0 0 Z " fill="#111211" transform="translate(245.3125,271.9375)"/>
<path d="M0 0 C2.05078125 0.03255208 4.1015625 0.06510417 6.15234375 0.09765625 C5.5203037 4.77475262 5.5203037 4.77475262 3.62109375 6.44140625 C1.58094904 8.74199497 1.84716058 10.26462164 1.96484375 13.28515625 C1.99191406 14.18621094 2.01898438 15.08726562 2.046875 16.015625 C2.08167969 16.70269531 2.11648437 17.38976562 2.15234375 18.09765625 C6.55762137 20.62580818 11.32250829 21.2490931 16.25390625 22.21875 C19.15234375 23.09765625 19.15234375 23.09765625 21.15234375 26.09765625 C20.27734375 29.28515625 20.27734375 29.28515625 19.15234375 32.09765625 C21.12057261 34.06588511 24.50043084 33.76014006 27.15234375 34.09765625 C27.15234375 34.42765625 27.15234375 34.75765625 27.15234375 35.09765625 C20.72686112 36.43124698 20.72686112 36.43124698 18.21484375 34.97265625 C16.8487275 32.56186287 16.93123114 30.82471179 17.15234375 28.09765625 C15.83234375 28.09765625 14.51234375 28.09765625 13.15234375 28.09765625 C14.27931418 33.06676991 14.27931418 33.06676991 17.15234375 37.09765625 C19.72295686 37.74533418 19.72295686 37.74533418 22.15234375 38.09765625 C22.15234375 38.75765625 22.15234375 39.41765625 22.15234375 40.09765625 C21.49234375 40.09765625 20.83234375 40.09765625 20.15234375 40.09765625 C19.82234375 40.75765625 19.49234375 41.41765625 19.15234375 42.09765625 C15.5388652 39.46079352 13.08461992 37.16560607 11.15234375 33.09765625 C11.15234375 31.77765625 11.15234375 30.45765625 11.15234375 29.09765625 C10.34410156 28.86691406 9.53585938 28.63617188 8.703125 28.3984375 C-2.0073914 25.12972743 -2.0073914 25.12972743 -5.84765625 20.09765625 C-7.81747919 16.15801037 -7.30724856 11.39121602 -6.84765625 7.09765625 C-5.53266057 4.00143915 -3.60621939 0.19060356 0 0 Z " fill="#101111" transform="translate(113.84765625,406.90234375)"/>
<path d="M0 0 C4.64174055 2.80663382 6.45084871 5.83616235 8 11 C8.10149545 14.45084523 7.93630357 17.73722216 5.8125 20.6015625 C3.39816287 22.46434848 1.02729137 23.20582044 -1.875 24.125 C-2.90367187 24.45757812 -3.93234375 24.79015625 -4.9921875 25.1328125 C-8 26 -8 26 -10.8125 26.49609375 C-11.534375 26.66238281 -12.25625 26.82867187 -13 27 C-14.16666667 28.91666667 -14.16666667 28.91666667 -15 31 C-15.99 31.66 -16.98 32.32 -18 33 C-21.0653951 27.60490463 -21.0653951 27.60490463 -20.75 24.6875 C-20 23 -20 23 -19 22 C-17.989375 21.9175 -16.97875 21.835 -15.9375 21.75 C-11.26019311 21.1108649 -7.44807721 19.2320531 -4 16 C-2.42130641 12.61658971 -2.42130641 12.61658971 -3 9 C-4.45742491 6.73465476 -6.14922783 4.98619452 -8 3 C-8 2.01 -8 1.02 -8 0 C-5.0233079 -1.48834605 -3.18307201 -0.8113713 0 0 Z " fill="#1C1D1D" transform="translate(420,408)"/>
<path d="M0 0 C9.9 0 19.8 0 30 0 C30.89639252 3.58557008 31.11627846 6.20942192 31.09765625 9.859375 C31.09443359 10.97441406 31.09121094 12.08945312 31.08789062 13.23828125 C31.07532227 14.97658203 31.07532227 14.97658203 31.0625 16.75 C31.05798828 17.92433594 31.05347656 19.09867188 31.04882812 20.30859375 C31.03705094 23.20578072 31.02060326 26.10286454 31 29 C28.83183018 25.74774526 28.68004096 24.36574864 28.4375 20.5625 C28.20101193 15.68647434 28.20101193 15.68647434 27 11 C26.01 10.67 25.02 10.34 24 10 C24 9.34 24 8.68 24 8 C17.66585128 5.88861709 12.24168701 4.81553744 5.75 7.1875 C2.1822189 9.53899209 -0.09221079 12.18442157 -2 16 C-2.07139635 18.14474644 -2.08403003 20.29167354 -2.0625 22.4375 C-2.05347656 23.59121094 -2.04445312 24.74492188 -2.03515625 25.93359375 C-2.02355469 26.94550781 -2.01195312 27.95742188 -2 29 C-2 32 -2 32 -3.3125 33.6875 C-5.30795427 36.42201141 -6.2045249 39.09739503 -7.25390625 42.29296875 C-8 44 -8 44 -10 45 C-9.3588567 41.7074017 -8.71129104 38.41609917 -8.0625 35.125 C-7.88009766 34.18785156 -7.69769531 33.25070312 -7.50976562 32.28515625 C-7.33251953 31.38925781 -7.15527344 30.49335937 -6.97265625 29.5703125 C-6.81031494 28.74289551 -6.64797363 27.91547852 -6.48071289 27.06298828 C-6 25 -6 25 -5 23 C-4.50766637 19.62975249 -4.10272134 16.25258712 -3.6953125 12.87109375 C-3 9 -3 9 0 0 Z " fill="#D3D3D1" transform="translate(253,618)"/>
<path d="M0 0 C2.31 0 4.62 0 7 0 C7.9277293 3.13108637 8.54046401 5.75721591 8 9 C6.24262398 11.28729248 4.30455572 13.26262768 2 15 C1.34 15 0.68 15 0 15 C0 15.66 0 16.32 0 17 C-2.22855574 17.0814222 -4.45797655 17.13938079 -6.6875 17.1875 C-8.54955078 17.23970703 -8.54955078 17.23970703 -10.44921875 17.29296875 C-14.18564321 16.9846829 -16.00629483 16.18088273 -19 14 C-19 15.65 -19 17.3 -19 19 C-19.33 19 -19.66 19 -20 19 C-20.06058594 18.37351562 -20.12117188 17.74703125 -20.18359375 17.1015625 C-20.26738281 16.28429687 -20.35117187 15.46703125 -20.4375 14.625 C-20.51871094 13.81289063 -20.59992188 13.00078125 -20.68359375 12.1640625 C-20.89090114 9.95727195 -20.89090114 9.95727195 -22 8 C-15.53521127 7.74647887 -15.53521127 7.74647887 -12.625 9.125 C-8.55632393 10.48122536 -5.03504201 9.14282236 -1 8 C-0.67 5.36 -0.34 2.72 0 0 Z " fill="#202222" transform="translate(390,443)"/>
<path d="M0 0 C2.4375 0.8125 2.4375 0.8125 5 2 C5.33 2.99 5.66 3.98 6 5 C2.53186413 8.190685 -0.38181667 8.53818167 -5 9 C-6.27875 9.20625 -7.5575 9.4125 -8.875 9.625 C-13.33824581 10.19384505 -17.57236025 9.6661958 -22 9 C-19.37532222 5.06298333 -16.39165066 4.57278924 -12.0625 3.3125 C-11.33353516 3.08755859 -10.60457031 2.86261719 -9.85351562 2.63085938 C-6.811967 1.71365544 -4.19308782 1 -1 1 C-0.67 0.67 -0.34 0.34 0 0 Z " fill="#B6AFA7" transform="translate(93,296)"/>
<path d="M0 0 C0.94875 0.04125 1.8975 0.0825 2.875 0.125 C2.92947047 1.54123216 2.96800508 2.95808191 3 4.375 C3.02320313 5.16390625 3.04640625 5.9528125 3.0703125 6.765625 C2.8578378 9.33231941 2.16154105 10.9166067 0.875 13.125 C-0.445 13.125 -1.765 13.125 -3.125 13.125 C-4.115 10.815 -5.105 8.505 -6.125 6.125 C-6.455 8.105 -6.785 10.085 -7.125 12.125 C-8.775 11.795 -10.425 11.465 -12.125 11.125 C-12.875 9.375 -12.875 9.375 -13.125 7.125 C-10.7360119 4.02816357 -8.89615461 2.87923092 -5.125 2.125 C-3.125 0.125 -3.125 0.125 0 0 Z " fill="#232522" transform="translate(371.125,294.875)"/>
<path d="M0 0 C1.41750563 0.11509661 2.83401169 0.24253658 4.25 0.375 C5.03890625 0.44460938 5.8278125 0.51421875 6.640625 0.5859375 C9.13453 1.02360957 10.87172675 1.63182434 13 3 C13.75 5.625 13.75 5.625 14 8 C10.25 9.125 10.25 9.125 8 8 C7.67 7.01 7.34 6.02 7 5 C6.34 7.97 5.68 10.94 5 14 C2.525 13.01 2.525 13.01 0 12 C-0.76173392 7.6835078 -1.16063604 4.25566547 0 0 Z " fill="#2C2C2A" transform="translate(376,295)"/>
<path d="M0 0 C2 3 2 3 3 5 C3.33 4.01 3.66 3.02 4 2 C4.99 2.33 5.98 2.66 7 3 C8.09423875 6.97904999 8.04429838 9.34854059 6.4375 13.0625 C5.14559982 16.09439187 4.90954544 16.66601394 5.8125 20 C6.204375 20.66 6.59625 21.32 7 22 C5.68 21.34 4.36 20.68 3 20 C3 18.68 3 17.36 3 16 C0.03 15.505 0.03 15.505 -3 15 C-2.67 12.36 -2.34 9.72 -2 7 C-1.34 7 -0.68 7 0 7 C0 4.69 0 2.38 0 0 Z " fill="#67686B" transform="translate(388,167)"/>
<path d="M0 0 C1.62752231 0.25523874 3.25203196 0.52974494 4.875 0.8125 C6.23238281 1.03873047 6.23238281 1.03873047 7.6171875 1.26953125 C10 2 10 2 12 5 C11.125 8.1875 11.125 8.1875 10 11 C11.96822886 12.96822886 15.34808709 12.66248381 18 13 C18 13.33 18 13.66 18 14 C11.57451737 15.33359073 11.57451737 15.33359073 9.0625 13.875 C7.69638375 11.46420662 7.77888739 9.72705554 8 7 C6.68 7 5.36 7 4 7 C5.12697043 11.96911366 5.12697043 11.96911366 8 16 C10.57061311 16.64767793 10.57061311 16.64767793 13 17 C13 17.66 13 18.32 13 19 C12.34 19 11.68 19 11 19 C10.67 19.66 10.34 20.32 10 21 C6.38652145 18.36313727 3.93227617 16.06794982 2 12 C2 10.68 2 9.36 2 8 C0.02 7.34 -1.96 6.68 -4 6 C-1.01758453 5.22678118 1.97580475 4.58803797 5 4 C4.360625 3.896875 3.72125 3.79375 3.0625 3.6875 C2.381875 3.460625 1.70125 3.23375 1 3 C0.67 2.01 0.34 1.02 0 0 Z " fill="#4A4B4A" transform="translate(123,428)"/>
<path d="M0 0 C2.05078125 0.03255208 4.1015625 0.06510417 6.15234375 0.09765625 C5.52015984 4.77581717 5.52015984 4.77581717 3.65234375 6.41015625 C1.16686594 9.20631878 1.45211318 12.44046918 1.15234375 16.09765625 C0.82234375 16.09765625 0.49234375 16.09765625 0.15234375 16.09765625 C0.15234375 13.78765625 0.15234375 11.47765625 0.15234375 9.09765625 C-1.82765625 9.42765625 -3.80765625 9.75765625 -5.84765625 10.09765625 C-5.51765625 13.39765625 -5.18765625 16.69765625 -4.84765625 20.09765625 C-7.41166402 17.53364848 -7.17399259 16.4098361 -7.22265625 12.84765625 C-7.1558259 8.21813548 -5.93782651 0.31383861 0 0 Z " fill="#191B18" transform="translate(113.84765625,406.90234375)"/>
<path d="M0 0 C2.26790253 3.65984577 2.40721029 7.01027068 2.66796875 11.2578125 C2.71190262 11.96090546 2.75583649 12.66399841 2.80110168 13.38839722 C2.89178232 14.87586422 2.97808529 16.36360371 3.06030273 17.8515625 C3.18595022 20.09730034 3.32920341 22.34140268 3.47460938 24.5859375 C3.93576325 32.1673198 4.05410431 39.44932374 3 47 C8.28 47 13.56 47 19 47 C14.62315398 49.91789735 10.91072353 50.22052135 5.79296875 49.51953125 C4.54128906 49.34808594 3.28960937 49.17664063 2 49 C1.97494385 48.28980713 1.9498877 47.57961426 1.92407227 46.84790039 C1.80701528 43.58596536 1.68479254 40.32424278 1.5625 37.0625 C1.52318359 35.94552734 1.48386719 34.82855469 1.44335938 33.67773438 C1.23053705 28.09524119 0.88641672 22.59708 0.20727539 17.05297852 C-0.13417091 13.67109167 -0.09312314 10.33666861 -0.0625 6.9375 C-0.05347656 5.62652344 -0.04445313 4.31554687 -0.03515625 2.96484375 C-0.02355469 1.98644531 -0.01195312 1.00804687 0 0 Z " fill="#5E5F5D" transform="translate(371,520)"/>
<path d="M0 0 C1.65 0.33 3.3 0.66 5 1 C5.19335938 1.74765625 5.38671875 2.4953125 5.5859375 3.265625 C5.84632813 4.25046875 6.10671875 5.2353125 6.375 6.25 C6.63023437 7.22453125 6.88546875 8.1990625 7.1484375 9.203125 C7.89780598 11.95370542 7.89780598 11.95370542 9.1015625 14.171875 C10 16 10 16 10 19 C7.03824877 18.38722388 5.61941217 17.74627478 3 16 C3 15.01 3 14.02 3 13 C1.6078125 12.3503125 1.6078125 12.3503125 0.1875 11.6875 C-4.24390244 9.34146341 -4.24390244 9.34146341 -6 7 C-6 6.01 -6 5.02 -6 4 C-6.66 3.67 -7.32 3.34 -8 3 C-5.625 3.25 -5.625 3.25 -3 4 C-1.6875 6.0625 -1.6875 6.0625 -1 8 C-0.34 8 0.32 8 1 8 C1.33 8.66 1.66 9.32 2 10 C2.99 10.33 3.98 10.66 5 11 C4.67 8.03 4.34 5.06 4 2 C2.68 2 1.36 2 0 2 C0 1.34 0 0.68 0 0 Z " fill="#595A59" transform="translate(399,195)"/>
<path d="M0 0 C1.734375 0.12890625 1.734375 0.12890625 4 1 C6.140625 3.65234375 6.140625 3.65234375 8.25 6.9375 C8.95640625 8.01902344 9.6628125 9.10054687 10.390625 10.21484375 C12 13 12 13 12 15 C11.34 15 10.68 15 10 15 C10 15.99 10 16.98 10 18 C7.10452317 16.55226158 5.8281405 14.65375234 4 12 C3.25 8.6875 3.25 8.6875 3 6 C2.34 6 1.68 6 1 6 C0.67 4.02 0.34 2.04 0 0 Z " fill="#222426" transform="translate(392,591)"/>
<path d="M0 0 C3.3956697 -0.08745946 6.79104773 -0.14054444 10.1875 -0.1875 C11.14720703 -0.21263672 12.10691406 -0.23777344 13.09570312 -0.26367188 C22.26094426 -0.35881279 22.26094426 -0.35881279 26 3 C26.3125 5.6875 26.3125 5.6875 26 8 C20.00661307 10.0449004 14.36676239 10.41816159 8.0625 10.625 C6.6074707 10.68300781 6.6074707 10.68300781 5.12304688 10.7421875 C2.74887924 10.83575076 0.37470508 10.92149208 -2 11 C1.11173575 9.21551481 3.64068326 8.65715369 7.203125 8.3671875 C8.67265625 8.24150391 8.67265625 8.24150391 10.171875 8.11328125 C11.69554687 7.99533203 11.69554687 7.99533203 13.25 7.875 C14.28125 7.78863281 15.3125 7.70226562 16.375 7.61328125 C18.91615699 7.40151817 21.45769121 7.19736846 24 7 C24 6.34 24 5.68 24 5 C23.01 4.67 22.02 4.34 21 4 C20.67 3.01 20.34 2.02 20 1 C13.4 1 6.8 1 0 1 C0 0.67 0 0.34 0 0 Z " fill="#676660" transform="translate(451,279)"/>
<path d="M0 0 C2.375 -0.1875 2.375 -0.1875 5 0 C7.1202151 3.18032265 7.2495865 3.54567399 6.75 7.0625 C6.61851562 8.10083984 6.61851562 8.10083984 6.484375 9.16015625 C6 11 6 11 4 13 C3.01 13 2.02 13 1 13 C-0.6290678 8.20862412 -1.20577428 4.94367454 0 0 Z " fill="#1B1D1C" transform="translate(164,295)"/>
<path d="M0 0 C3.00582871 4.00777162 3.51637525 5.50050174 4.1875 10.25 C4.34605469 11.32765625 4.50460938 12.4053125 4.66796875 13.515625 C4.83232422 14.74539062 4.83232422 14.74539062 5 16 C4.34 16 3.68 16 3 16 C3 16.99 3 17.98 3 19 C4.32 19.33 5.64 19.66 7 20 C6.34 21.98 5.68 23.96 5 26 C4.34 26 3.68 26 3 26 C3.33 24.68 3.66 23.36 4 22 C3.01 21.67 2.02 21.34 1 21 C1.33 19.68 1.66 18.36 2 17 C0.68 17 -0.64 17 -2 17 C-2.33 15.68 -2.66 14.36 -3 13 C-2.01 13 -1.02 13 0 13 C0 12.01 0 11.02 0 10 C0.66 10 1.32 10 2 10 C1.34 6.7 0.68 3.4 0 0 Z " fill="#3F3F41" transform="translate(141,160)"/>
<path d="M0 0 C0.33 0 0.66 0 1 0 C1 1.65 1 3.3 1 5 C0.01 5 -0.98 5 -2 5 C-2 5.99 -2 6.98 -2 8 C-0.35 8 1.3 8 3 8 C2.34 8.66 1.68 9.32 1 10 C0.34 9.67 -0.32 9.34 -1 9 C-1.2475 10.0725 -1.495 11.145 -1.75 12.25 C-3 16 -3 16 -5.125 18.0625 C-7.34333448 19.94234855 -7.34333448 19.94234855 -7.25 23.25 C-7.1675 24.1575 -7.085 25.065 -7 26 C-7.66 26.33 -8.32 26.66 -9 27 C-9.09087891 26.11248047 -9.09087891 26.11248047 -9.18359375 25.20703125 C-9.62012371 21.09021792 -10.08671346 17.04455467 -11 13 C-10.67 13.99 -10.34 14.98 -10 16 C-8.68 15.67 -7.36 15.34 -6 15 C-5.8453125 13.700625 -5.8453125 13.700625 -5.6875 12.375 C-4.71769824 7.61415498 -2.67721873 4.0158281 0 0 Z " fill="#3F423E" transform="translate(128,205)"/>
<path d="M0 0 C0.125 7.625 0.125 7.625 -1 11 C-3.375 11.1875 -3.375 11.1875 -6 11 C-8.30019361 7.54970958 -8.43132515 6.05445642 -8 2 C-4.77208445 -0.1519437 -3.71599191 -0.20086443 0 0 Z " fill="#252624" transform="translate(151,297)"/>
<path d="M0 0 C0.66 0.33 1.32 0.66 2 1 C0.02 1.99 0.02 1.99 -2 3 C-1.04134491 5.33075929 -1.04134491 5.33075929 2 7 C0.68 7 -0.64 7 -2 7 C-2.268125 7.61875 -2.53625 8.2375 -2.8125 8.875 C-4 11 -4 11 -7 13 C-10.0653951 7.60490463 -10.0653951 7.60490463 -9.75 4.6875 C-9 3 -9 3 -8 2 C-5.66666667 1.66666667 -3.33333333 1.33333333 -1 1 C-0.67 0.67 -0.34 0.34 0 0 Z " fill="#555855" transform="translate(409,428)"/>
<path d="M0 0 C1.65 0.33 3.3 0.66 5 1 C6.46845421 6.47332932 5.44038726 9.11922548 3 14 C2.01 13.67 1.02 13.34 0 13 C-1.18306728 10.63386544 -1.13354608 9.13219264 -1.125 6.5 C-1.12757813 5.7059375 -1.13015625 4.911875 -1.1328125 4.09375 C-1 2 -1 2 0 0 Z " fill="#161818" transform="translate(155,295)"/>
<path d="M0 0 C0.33 0 0.66 0 1 0 C1.19335938 0.80824219 1.38671875 1.61648438 1.5859375 2.44921875 C1.84632813 3.51785156 2.10671875 4.58648438 2.375 5.6875 C2.75785156 7.27111328 2.75785156 7.27111328 3.1484375 8.88671875 C3.91706606 11.9795292 3.91706606 11.9795292 5.1640625 14.70703125 C6 17 6 17 5 20 C1.28804004 17.98263045 -0.68080594 16.65115588 -2.5625 12.8125 C-3.12591973 7.90269951 -1.89230397 4.48659166 0 0 Z " fill="#BCBDBD" transform="translate(285,653)"/>
<path d="M0 0 C0.33 0 0.66 0 1 0 C1 22 1 22 -0.3125 23.6875 C-2.30795427 26.42201141 -3.2045249 29.09739503 -4.25390625 32.29296875 C-5 34 -5 34 -7 35 C-6.3588567 31.7074017 -5.71129104 28.41609917 -5.0625 25.125 C-4.88009766 24.18785156 -4.69769531 23.25070312 -4.50976562 22.28515625 C-4.33251953 21.38925781 -4.15527344 20.49335937 -3.97265625 19.5703125 C-3.81031494 18.74289551 -3.64797363 17.91547852 -3.48071289 17.06298828 C-3 15 -3 15 -2 13 C-1.61212744 10.79733684 -1.26290505 8.58775432 -0.9375 6.375 C-0.76089844 5.18648437 -0.58429688 3.99796875 -0.40234375 2.7734375 C-0.26957031 1.85820313 -0.13679687 0.94296875 0 0 Z " fill="#B4B4B3" transform="translate(250,628)"/>
<path d="M0 0 C2.29633824 3.44450737 2.54016485 5.93812283 3 10 C3.99 10.33 4.98 10.66 6 11 C4.68 11 3.36 11 2 11 C1.01 8.69 0.02 6.38 -1 4 C-1.33 5.98 -1.66 7.96 -2 10 C-3.65 9.67 -5.3 9.34 -7 9 C-7.75 7.25 -7.75 7.25 -8 5 C-5.68212991 1.99535358 -3.7726764 0.53895377 0 0 Z " fill="#4B4D4A" transform="translate(366,297)"/>
<path d="M0 0 C3.61773603 1.43315025 4.969107 3.04587964 6.8125 6.4375 C7.25207031 7.21996094 7.69164062 8.00242187 8.14453125 8.80859375 C9 11 9 11 8 14 C7.01 13.01 6.02 12.02 5 11 C5.33 12.65 5.66 14.3 6 16 C5.34 16 4.68 16 4 16 C3.32586789 14.08594633 2.6609668 12.16863974 2 10.25 C1.62875 9.18265625 1.2575 8.1153125 0.875 7.015625 C0 4 0 4 0 0 Z " fill="#383C3B" transform="translate(382,590)"/>
<path d="M0 0 C-0.33 0.99 -0.66 1.98 -1 3 C-2.65 3 -4.3 3 -6 3 C-6 3.66 -6 4.32 -6 5 C-8.97 4.67 -11.94 4.34 -15 4 C-13 1 -13 1 -10.72265625 0.234375 C-9.40587891 -0.00539063 -9.40587891 -0.00539063 -8.0625 -0.25 C-6.74958984 -0.50523437 -6.74958984 -0.50523437 -5.41015625 -0.765625 C-3 -1 -3 -1 0 0 Z " fill="#9C948A" transform="translate(86,301)"/>
<path d="M0 0 C1.875 0.1875 1.875 0.1875 4 1 C6.40130297 5.04429974 7.10505578 10.32501761 7 15 C6.01 16.485 6.01 16.485 5 18 C4.34 18 3.68 18 3 18 C3.03480469 17.41992188 3.06960937 16.83984375 3.10546875 16.2421875 C3.28981557 10.92246509 2.69627085 7.71847398 0 3 C0 2.01 0 1.02 0 0 Z " fill="#484A48" transform="translate(132,177)"/>
<path d="M0 0 C3.16115776 1.36983503 3.9927092 1.9890638 6 5 C6 6.32 6 7.64 6 9 C6.99 9.33 7.98 9.66 9 10 C6 12 6 12 4 12 C-0.57142857 4.71428571 -0.57142857 4.71428571 0 0 Z " fill="#1E2222" transform="translate(374,596)"/>
<path d="M0 0 C2 1 2 1 2.81640625 2.99609375 C3.06261719 3.80175781 3.30882812 4.60742188 3.5625 5.4375 C4.59917007 8.79152852 4.59917007 8.79152852 6 12 C3.03 11.505 3.03 11.505 0 11 C0 10.34 0 9.68 0 9 C-0.66 9 -1.32 9 -2 9 C-1.34 6.03 -0.68 3.06 0 0 Z " fill="#CED5D4" transform="translate(372,595)"/>
<path d="M0 0 C1.87945312 0.10828125 1.87945312 0.10828125 3.796875 0.21875 C5.44791332 0.312559 7.09895517 0.40630574 8.75 0.5 C9.9875 0.57154297 9.9875 0.57154297 11.25 0.64453125 C12.04921875 0.68964844 12.8484375 0.73476563 13.671875 0.78125 C14.4050293 0.82314453 15.13818359 0.86503906 15.89355469 0.90820312 C17.92733614 0.99683338 19.96428825 1 22 1 C22.66 1.33 23.32 1.66 24 2 C21.86439512 4.13560488 17.20203348 3.18520091 14.25 3.1875 C13.43789062 3.19974609 12.62578125 3.21199219 11.7890625 3.22460938 C7.40529429 3.23531891 3.98982343 3.0516775 0 1 C0 0.67 0 0.34 0 0 Z " fill="#616461" transform="translate(78,439)"/>
<path d="M0 0 C0 1.65 0 3.3 0 5 C-0.66 5 -1.32 5 -2 5 C-2 5.66 -2 6.32 -2 7 C-4.875 7.625 -4.875 7.625 -8 8 C-8.66 7.34 -9.32 6.68 -10 6 C-8.35 5.67 -6.7 5.34 -5 5 C-5 4.34 -5 3.68 -5 3 C-6.98 3 -8.96 3 -11 3 C-3.71428571 -1.85714286 -3.71428571 -1.85714286 0 0 Z " fill="#ACA79F" transform="translate(90,298)"/>
<path d="M0 0 C1.98 0 3.96 0 6 0 C6 0.66 6 1.32 6 2 C6.66386719 2.06058594 7.32773437 2.12117187 8.01171875 2.18359375 C16.78207381 3.01581722 16.78207381 3.01581722 21 4 C21 4.33 21 4.66 21 5 C15.88285524 6.02342895 12.84349282 5.8549547 8 4 C6.9275 3.855625 5.855 3.71125 4.75 3.5625 C2 3 2 3 0 0 Z " fill="#545150" transform="translate(301,686)"/>
<path d="M0 0 C4.75 0.875 4.75 0.875 7 2 C7.625 4.5625 7.625 4.5625 8 7 C4.25 8.125 4.25 8.125 2 7 C0.42451317 4.37418862 0 3.12900213 0 0 Z " fill="#353432" transform="translate(382,296)"/>
<path d="M0 0 C1 2 1 2 0.0625 5.125 C-0.288125 6.07375 -0.63875 7.0225 -1 8 C0.65 8 2.3 8 4 8 C4 8.66 4 9.32 4 10 C3.34 10 2.68 10 2 10 C1.67 10.99 1.34 11.98 1 13 C-0.98 13 -2.96 13 -5 13 C-5 12.01 -5 11.02 -5 10 C-4.01 10 -3.02 10 -2 10 C-1.93941406 9.36191406 -1.87882813 8.72382813 -1.81640625 8.06640625 C-1.73261719 7.24011719 -1.64882812 6.41382813 -1.5625 5.5625 C-1.48128906 4.73878906 -1.40007812 3.91507813 -1.31640625 3.06640625 C-1 1 -1 1 0 0 Z " fill="#242723" transform="translate(131,200)"/>
<path d="M0 0 C0.66 0.33 1.32 0.66 2 1 C1 4 1 4 -0.70703125 4.87890625 C-1.40183594 5.10449219 -2.09664063 5.33007812 -2.8125 5.5625 C-5.13224272 6.34541317 -7.15162505 7.08195949 -9.3125 8.25 C-11 9 -11 9 -14 8 C-12.41779413 7.03980636 -10.83418669 6.08192202 -9.25 5.125 C-7.92742187 4.32449219 -7.92742187 4.32449219 -6.578125 3.5078125 C-1.97546012 0.81595092 -1.97546012 0.81595092 0 0 Z " fill="#494A48" transform="translate(385,99)"/>
<path d="M0 0 C2.05078125 0.03255208 4.1015625 0.06510417 6.15234375 0.09765625 C6.15234375 0.42765625 6.15234375 0.75765625 6.15234375 1.09765625 C3.84234375 1.09765625 1.53234375 1.09765625 -0.84765625 1.09765625 C-1.53385656 2.42104257 -2.19552086 3.75715573 -2.84765625 5.09765625 C-3.21890625 5.79890625 -3.59015625 6.50015625 -3.97265625 7.22265625 C-5.27169915 11.49094007 -5.00243252 15.66933522 -4.84765625 20.09765625 C-7.41166402 17.53364848 -7.17399259 16.4098361 -7.22265625 12.84765625 C-7.1558259 8.21813548 -5.93782651 0.31383861 0 0 Z " fill="#4D534F" transform="translate(113.84765625,406.90234375)"/>
<path d="M0 0 C0.66 0.33 1.32 0.66 2 1 C1.24203125 1.72703125 1.24203125 1.72703125 0.46875 2.46875 C-4.21500027 7.19836699 -4.21500027 7.19836699 -5.4375 13.5 C-5.293125 14.655 -5.14875 15.81 -5 17 C-5.66 17 -6.32 17 -7 17 C-7.33 13.7 -7.66 10.4 -8 7 C-7.34 7 -6.68 7 -6 7 C-5.9071875 6.1028125 -5.9071875 6.1028125 -5.8125 5.1875 C-4.66061101 2.08626042 -2.93240408 1.35891897 0 0 Z " fill="#383A39" transform="translate(109,447)"/>
<path d="M0 0 C1.32 0.33 2.64 0.66 4 1 C-1.04140164 3.81532819 -5.22621075 5.5188509 -11 6 C-11 4.35 -11 2.7 -11 1 C-10.01 1 -9.02 1 -8 1 C-8 1.66 -8 2.32 -8 3 C-7.236875 2.835 -6.47375 2.67 -5.6875 2.5 C-3 2 -3 2 0 2 C0 1.34 0 0.68 0 0 Z " fill="#3F3F3C" transform="translate(368,420)"/>
<path d="M0 0 C0.33 0 0.66 0 1 0 C1 1.65 1 3.3 1 5 C0.01 5 -0.98 5 -2 5 C-2 5.99 -2 6.98 -2 8 C-0.35 8 1.3 8 3 8 C2.34 8.66 1.68 9.32 1 10 C0.34 9.67 -0.32 9.34 -1 9 C-1.33 10.98 -1.66 12.96 -2 15 C-2.33 14.01 -2.66 13.02 -3 12 C-3.66 11.67 -4.32 11.34 -5 11 C-3.93051945 6.72207778 -3.02504439 3.28809173 0 0 Z " fill="#656864" transform="translate(128,205)"/>
<path d="M0 0 C0.99 0.33 1.98 0.66 3 1 C3 1.66 3 2.32 3 3 C3.66 3 4.32 3 5 3 C4.67 4.32 4.34 5.64 4 7 C2.02 7 0.04 7 -2 7 C-2 5.68 -2 4.36 -2 3 C-1.34 3 -0.68 3 0 3 C0 2.01 0 1.02 0 0 Z " fill="#8D8E90" transform="translate(387,175)"/>
<path d="M0 0 C-0.020625 0.78375 -0.04125 1.5675 -0.0625 2.375 C-0.18684063 4.98114961 -0.18684063 4.98114961 1 7 C-1.31 7.33 -3.62 7.66 -6 8 C-6.33 7.01 -6.66 6.02 -7 5 C-1.125 0 -1.125 0 0 0 Z " fill="#272A27" transform="translate(414,426)"/>
<path d="M0 0 C4.51170654 -0.20262155 7.98686018 0.4075373 12.25 1.875 C13.28640625 2.22304687 14.3228125 2.57109375 15.390625 2.9296875 C18 4 18 4 20 6 C18.9171875 5.78150391 18.9171875 5.78150391 17.8125 5.55859375 C16.04365548 5.20728157 14.27300592 4.86482454 12.5 4.53515625 C8.13546243 3.70998587 4.05402272 2.89187727 0 1 C0 0.67 0 0.34 0 0 Z " fill="#444541" transform="translate(301,140)"/>
<path d="M0 0 C0.33 0 0.66 0 1 0 C1 4.62 1 9.24 1 14 C0.01 13.67 -0.98 13.34 -2 13 C-3.44801086 9.71105071 -2.76762662 7.52794441 -1.5625 4.25 C-1.27503906 3.45078125 -0.98757813 2.6515625 -0.69140625 1.828125 C-0.46324219 1.22484375 -0.23507812 0.6215625 0 0 Z " fill="#DEE1DF" transform="translate(285,653)"/>
<path d="M0 0 C7.09434233 -0.09733092 13.98194143 -0.10087193 21 1 C15.82779219 4.44813854 10.32973297 3.15767747 4.5 2 C2.99831674 1.67433375 1.49765321 1.34372369 0 1 C0 0.67 0 0.34 0 0 Z " fill="#545657" transform="translate(239,404)"/>
<path d="M0 0 C1.66089301 0.43183218 3.3204746 0.87737915 4.94921875 1.41796875 C8.55664713 2.44179128 12.27446798 2.6789791 16 3 C16 3.33 16 3.66 16 4 C9.29481414 4.19818283 3.34823202 4.30844801 -3 2 C-2.01 1.34 -1.02 0.68 0 0 Z " fill="#575956" transform="translate(453,376)"/>
<path d="M0 0 C1.875 0.1875 1.875 0.1875 4 1 C5.3125 3.375 5.3125 3.375 6 6 C5.67 6.99 5.34 7.98 5 9 C4.34 8.67 3.68 8.34 3 8 C3 7.34 3 6.68 3 6 C2.34 6 1.68 6 1 6 C0.67 4.02 0.34 2.04 0 0 Z " fill="#1D1F20" transform="translate(392,591)"/>
<path d="M0 0 C0.66 0 1.32 0 2 0 C2 0.66 2 1.32 2 2 C3.546875 1.7215625 3.546875 1.7215625 5.125 1.4375 C10.32678619 0.85020156 13.61974204 1.07982802 18 4 C15.66705225 4.04241723 13.33297433 4.04092937 11 4 C10.67 3.67 10.34 3.34 10 3 C8.31391034 2.92794489 6.62499341 2.91613932 4.9375 2.9375 C4.01839844 2.94652344 3.09929687 2.95554687 2.15234375 2.96484375 C1.44207031 2.97644531 0.73179687 2.98804688 0 3 C0 2.01 0 1.02 0 0 Z " fill="#717374" transform="translate(221,402)"/>
<path d="M0 0 C2.475 0.495 2.475 0.495 5 1 C5 1.99 5 2.98 5 4 C5.66 4 6.32 4 7 4 C7.12375 4.804375 7.2475 5.60875 7.375 6.4375 C7.684375 7.7059375 7.684375 7.7059375 8 9 C8.66 9.33 9.32 9.66 10 10 C9.34 10 8.68 10 8 10 C7.67 10.66 7.34 11.32 7 12 C6.773125 11.278125 6.54625 10.55625 6.3125 9.8125 C4.75528356 6.47560763 2.61945291 4.55051994 0 2 C0 1.34 0 0.68 0 0 Z " fill="#656863" transform="translate(125,188)"/>
<path d="M0 0 C-0.99 0.33 -1.98 0.66 -3 1 C-3 1.66 -3 2.32 -3 3 C-4.32 3 -5.64 3 -7 3 C-7.268125 3.61875 -7.53625 4.2375 -7.8125 4.875 C-9 7 -9 7 -12 9 C-11.45466911 5.18268377 -9.93170573 3.44308811 -7 1 C-2.5 -1.25 -2.5 -1.25 0 0 Z " fill="#393B38" transform="translate(65,381)"/>
<path d="M0 0 C2.375 0.25 2.375 0.25 5 1 C6.3125 3.0625 6.3125 3.0625 7 5 C7.66 5 8.32 5 9 5 C9.33 5.66 9.66 6.32 10 7 C10.99 7.66 11.98 8.32 13 9 C6.66666667 8.51282051 6.66666667 8.51282051 3.5625 6.125 C2 4 2 4 2 1 C1.34 0.67 0.68 0.34 0 0 Z " fill="#39393A" transform="translate(391,198)"/>
<path d="M0 0 C0 0.99 0 1.98 0 3 C-2.31 3.33 -4.62 3.66 -7 4 C-7.66 3.01 -8.32 2.02 -9 1 C-6.04335481 -0.4783226 -3.25770263 -0.06032783 0 0 Z " fill="#8D8D8B" transform="translate(445,298)"/>
<path d="M0 0 C3 1 3 1 4.375 3 C6.4240915 5.52195876 7.84230107 5.65862714 11 6 C11 6.66 11 7.32 11 8 C10.34 8 9.68 8 9 8 C8.67 8.66 8.34 9.32 8 10 C3.92236229 7.13463296 1.97322935 4.56958375 0 0 Z " fill="#66656C" transform="translate(125,439)"/>
<path d="M0 0 C0 1.65 0 3.3 0 5 C-2.96175123 4.38722388 -4.38058783 3.74627478 -7 2 C-7 1.34 -7 0.68 -7 0 C-4.3333581 -1.33332095 -2.83319697 -0.67102033 0 0 Z " fill="#60605E" transform="translate(409,209)"/>
<path d="M0 0 C1.32 0.33 2.64 0.66 4 1 C2.02 3.97 0.04 6.94 -2 10 C-3.43088528 7.13822943 -2.59991697 5.06624227 -2 2 C-1.34 2 -0.68 2 0 2 C0 1.34 0 0.68 0 0 Z " fill="#757776" transform="translate(399,176)"/>
<path d="M0 0 C-0.4979837 3.73487777 -0.87491756 5.81237635 -3 9 C-3 6.69 -3 4.38 -3 2 C-4.98 2 -6.96 2 -9 2 C-9 1.67 -9 1.34 -9 1 C-5.846632 0.29925156 -3.27275026 0 0 0 Z " fill="#35383B" transform="translate(138,457)"/>
<path d="M0 0 C0.66 0.33 1.32 0.66 2 1 C0.90033225 2.29549899 -0.20491801 3.58626071 -1.3125 4.875 C-1.92738281 5.59429687 -2.54226563 6.31359375 -3.17578125 7.0546875 C-5 9 -5 9 -8 11 C-6.52670958 5.99081256 -3.72484762 3.48192278 0 0 Z " fill="#292D2C" transform="translate(404,116)"/>
<path d="M0 0 C0.33 0 0.66 0 1 0 C0.96519531 1.13888672 0.96519531 1.13888672 0.9296875 2.30078125 C0.91164063 3.29464844 0.89359375 4.28851563 0.875 5.3125 C0.84019531 6.79169922 0.84019531 6.79169922 0.8046875 8.30078125 C0.79317361 11.22406527 0.79317361 11.22406527 3 14 C1.68 13.34 0.36 12.68 -1 12 C-1 10.68 -1 9.36 -1 8 C-1.66 7.67 -2.32 7.34 -3 7 C-2.34 7 -1.68 7 -1 7 C-1.020625 6.030625 -1.04125 5.06125 -1.0625 4.0625 C-1 1 -1 1 0 0 Z " fill="#494A4C" transform="translate(392,175)"/>
<path d="M0 0 C1.65 0.33 3.3 0.66 5 1 C5 3.64 5 6.28 5 9 C4.67 9 4.34 9 4 9 C4 6.69 4 4.38 4 2 C2.02 3.32 0.04 4.64 -2 6 C-1.34 4.02 -0.68 2.04 0 0 Z " fill="#424745" transform="translate(312,665)"/>
<path d="M0 0 C1.65 0 3.3 0 5 0 C6 3 6 3 5.0625 5.1875 C4.5365625 6.0846875 4.5365625 6.0846875 4 7 C3.34 7 2.68 7 2 7 C2.33 5.68 2.66 4.36 3 3 C2.01 2.67 1.02 2.34 0 2 C0 1.34 0 0.68 0 0 Z " fill="#494949" transform="translate(142,179)"/>
<path d="M0 0 C0.33 0.99 0.66 1.98 1 3 C-1.97 5.475 -1.97 5.475 -5 8 C-5.66 7.67 -6.32 7.34 -7 7 C-2.25 1.125 -2.25 1.125 0 0 Z " fill="#565855" transform="translate(379,398)"/>
<path d="M0 0 C6.4 0.49230769 6.4 0.49230769 9.4375 3.0625 C10.2109375 4.0215625 10.2109375 4.0215625 11 5 C4.6 4.50769231 4.6 4.50769231 1.5625 1.9375 C1.046875 1.298125 0.53125 0.65875 0 0 Z " fill="#4F4949" transform="translate(177,390)"/>
<path d="M0 0 C0.66 0 1.32 0 2 0 C2.12375 0.969375 2.2475 1.93875 2.375 2.9375 C2.684375 4.4534375 2.684375 4.4534375 3 6 C3.66 6.33 4.32 6.66 5 7 C3.68 7.33 2.36 7.66 1 8 C0.34 5.69 -0.32 3.38 -1 1 C-0.67 0.67 -0.34 0.34 0 0 Z " fill="#393F3E" transform="translate(164,300)"/>
<path d="M0 0 C0.93423645 3.01031744 1.04449911 3.86650268 0 7 C0 7.66 0 8.32 0 9 C-1.32 9 -2.64 9 -4 9 C-4.33 7.68 -4.66 6.36 -5 5 C-4.01 5 -3.02 5 -2 5 C-2 4.01 -2 3.02 -2 2 C-1.34 2 -0.68 2 0 2 C0 1.34 0 0.68 0 0 Z " fill="#838484" transform="translate(143,168)"/>
<path d="M0 0 C1 2 1 2 0.51171875 4.12890625 C0.23972656 4.93199219 -0.03226562 5.73507812 -0.3125 6.5625 C-0.57675781 7.36816406 -0.84101563 8.17382812 -1.11328125 9.00390625 C-2 11 -2 11 -4 12 C-3.67421616 9.99875639 -3.33944795 7.99897128 -3 6 C-2.855625 5.071875 -2.71125 4.14375 -2.5625 3.1875 C-2.376875 2.465625 -2.19125 1.74375 -2 1 C-1.34 0.67 -0.68 0.34 0 0 Z " fill="#59564D" transform="translate(489,550)"/>
<path d="M0 0 C6.50381098 -0.36814024 6.50381098 -0.36814024 8.9375 1.4375 C10 3 10 3 10 4 C7.25 4.25 7.25 4.25 4 4 C1.625 2 1.625 2 0 0 Z " fill="#8C8E8E" transform="translate(210,401)"/>
<path d="M0 0 C-1.32 0.33 -2.64 0.66 -4 1 C-4 1.66 -4 2.32 -4 3 C-7.3 2.67 -10.6 2.34 -14 2 C-14 1.67 -14 1.34 -14 1 C-12.04310963 0.63794536 -10.08442332 0.28558579 -8.125 -0.0625 C-7.03445312 -0.25972656 -5.94390625 -0.45695312 -4.8203125 -0.66015625 C-2 -1 -2 -1 0 0 Z " fill="#545A55" transform="translate(239,57)"/>
<path d="M0 0 C2.49361571 1.20381448 4.68143083 2.45428722 7 4 C6.67 5.32 6.34 6.64 6 8 C3.33264727 5.51047079 1.44253657 3.36591866 0 0 Z " fill="#49474A" transform="translate(294,678)"/>
<path d="M0 0 C1.5 1.375 1.5 1.375 3 3 C3 3.66 3 4.32 3 5 C2.34 5 1.68 5 1 5 C1 5.99 1 6.98 1 8 C0.34 7.67 -0.32 7.34 -1 7 C-1.625 4.9375 -1.625 4.9375 -2 3 C-1.34 3 -0.68 3 0 3 C0 2.01 0 1.02 0 0 Z " fill="#37393A" transform="translate(401,601)"/>
<path d="M0 0 C1.22268689 4.89074757 0.20961767 7.58076466 -2 12 C-2.66 11.67 -3.32 11.34 -4 11 C-2.68 7.37 -1.36 3.74 0 0 Z " fill="#434546" transform="translate(159,458)"/>
<path d="M0 0 C2.97 0 5.94 0 9 0 C9 1.98 9 3.96 9 6 C8.67 5.01 8.34 4.02 8 3 C7.01 3 6.02 3 5 3 C5 2.34 5 1.68 5 1 C3.35 1 1.7 1 0 1 C0 0.67 0 0.34 0 0 Z " fill="#44434B" transform="translate(325,398)"/>
<path d="M0 0 C2.4375 0.8125 2.4375 0.8125 5 2 C5.33 2.99 5.66 3.98 6 5 C4.35 5 2.7 5 1 5 C0.67 3.35 0.34 1.7 0 0 Z " fill="#AEA9A3" transform="translate(93,296)"/>
<path d="M0 0 C1.625 1.6875 1.625 1.6875 3 4 C2.1875 6.75 2.1875 6.75 1 9 C0.34 9 -0.32 9 -1 9 C-0.67 6.03 -0.34 3.06 0 0 Z " fill="#848483" transform="translate(136,186)"/>
<path d="M0 0 C0.33 0 0.66 0 1 0 C1 2.31 1 4.62 1 7 C1.66 7 2.32 7 3 7 C3 7.66 3 8.32 3 9 C3.99 9.33 4.98 9.66 6 10 C4.68 10.33 3.36 10.66 2 11 C-0.67927341 6.98108988 -0.15601248 4.75838077 0 0 Z " fill="#5F6264" transform="translate(284,161)"/>
<path d="M0 0 C0 3 0 3 -1.3125 4.38671875 C-2.875 5.59114583 -4.4375 6.79557292 -6 8 C-6.66 7.67 -7.32 7.34 -8 7 C-5.36 4.69 -2.72 2.38 0 0 Z " fill="#545655" transform="translate(342,129)"/>
<path d="M0 0 C3.24732932 1.62366466 3.70155136 4.75387839 5 8 C3.68 8 2.36 8 1 8 C0.67 5.36 0.34 2.72 0 0 Z " fill="#3A3B3C" transform="translate(216,666)"/>
<path d="M0 0 C2 3 2 3 2 6 C2.66 6 3.32 6 4 6 C3.67 7.32 3.34 8.64 3 10 C3 9.01 3 8.02 3 7 C2.34 7 1.68 7 1 7 C1 6.01 1 5.02 1 4 C-0.32 3.67 -1.64 3.34 -3 3 C-2.01 2.01 -1.02 1.02 0 0 Z " fill="#AAAAAA" transform="translate(237,609)"/>
<path d="M0 0 C-0.5625 1.9375 -0.5625 1.9375 -2 4 C-5.625 4.75 -5.625 4.75 -9 5 C-2.87096774 0 -2.87096774 0 0 0 Z " fill="#474A47" transform="translate(441,593)"/>
<path d="M0 0 C-0.33 0.66 -0.66 1.32 -1 2 C-3.06640625 2.4140625 -3.06640625 2.4140625 -5.5625 2.625 C-6.38878906 2.69976562 -7.21507812 2.77453125 -8.06640625 2.8515625 C-9.02353516 2.92503906 -9.02353516 2.92503906 -10 3 C-6.93361469 -0.59474709 -4.63005752 -0.26207873 0 0 Z " fill="#4E4E4B" transform="translate(416,381)"/>
<path d="M0 0 C2.49361571 1.20381448 4.68143083 2.45428722 7 4 C5.68 4 4.36 4 3 4 C2.34 4.99 1.68 5.98 1 7 C0.67 4.69 0.34 2.38 0 0 Z " fill="#282926" transform="translate(137,183)"/>
<path d="M0 0 C0.66 0 1.32 0 2 0 C2.45375 0.763125 2.9075 1.52625 3.375 2.3125 C5.00525469 5.00869044 6.39735892 6.29482136 9 8 C3.25 7.25 3.25 7.25 1 5 C0.375 2.375 0.375 2.375 0 0 Z " fill="#4A4B49" transform="translate(196,151)"/>
<path d="M0 0 C-0.804375 0.61875 -1.60875 1.2375 -2.4375 1.875 C-5.03874519 3.74164041 -5.03874519 3.74164041 -6 6 C-6.66 5.67 -7.32 5.34 -8 5 C-6.19780722 -0.02039417 -5.34443412 -1.60333024 0 0 Z " fill="#4F524F" transform="translate(130,101)"/>
<path d="M0 0 C0.8971875 0.309375 0.8971875 0.309375 1.8125 0.625 C-1.1340385 2.42566242 -4.07551935 4.12663895 -7.1875 5.625 C-5.69046729 2.17030914 -4.27938051 -0.73360809 0 0 Z " fill="#202221" transform="translate(334.1875,241.375)"/>
<path d="M0 0 C0.66 0.66 1.32 1.32 2 2 C1.6442194 5.37991574 0.64284201 8.04288438 -1 11 C-1.14285714 3.57142857 -1.14285714 3.57142857 0 0 Z " fill="#76787A" transform="translate(394,170)"/>
<path d="M0 0 C2.7839183 1.39195915 2.97898997 3.15575779 4 6 C1.03 5.505 1.03 5.505 -2 5 C-2 4.34 -2 3.68 -2 3 C-1.34 3 -0.68 3 0 3 C0 2.01 0 1.02 0 0 Z " fill="#ACB2B4" transform="translate(374,601)"/>
<path d="M0 0 C0.66 0.33 1.32 0.66 2 1 C0.35 2.98 -1.3 4.96 -3 7 C-3.66 6.67 -4.32 6.34 -5 6 C-3.35 4.02 -1.7 2.04 0 0 Z " fill="#373736" transform="translate(71,419)"/>
<path d="M0 0 C2.31 0.33 4.62 0.66 7 1 C7.33 2.65 7.66 4.3 8 6 C6.66402348 5.19185349 5.331275 4.37836819 4 3.5625 C3.2575 3.11003906 2.515 2.65757812 1.75 2.19140625 C1.1725 1.79824219 0.595 1.40507812 0 1 C0 0.67 0 0.34 0 0 Z " fill="#5A5A5E" transform="translate(147,371)"/>
<path d="M0 0 C0.99 0.495 0.99 0.495 2 1 C1.01 1.495 1.01 1.495 0 2 C0 1.34 0 0.68 0 0 Z M-5 4 C-4.01 4.33 -3.02 4.66 -2 5 C-3.25 6.5625 -3.25 6.5625 -5 8 C-7.1875 7.6875 -7.1875 7.6875 -9 7 C-8.01 7 -7.02 7 -6 7 C-5.67 6.01 -5.34 5.02 -5 4 Z " fill="#1E1F1D" transform="translate(402,341)"/>
<path d="M0 0 C0.99 0 1.98 0 3 0 C2.67 1.98 2.34 3.96 2 6 C1.01 5.67 0.02 5.34 -1 5 C-0.67 3.35 -0.34 1.7 0 0 Z " fill="#0E0F0D" transform="translate(361,300)"/>
<path d="M0 0 C0.99 0 1.98 0 3 0 C3 0.99 3 1.98 3 3 C4.32 3.33 5.64 3.66 7 4 C4.03 3.67 1.06 3.34 -2 3 C-1.34 2.01 -0.68 1.02 0 0 Z " fill="#B3AEA4" transform="translate(73,302)"/>
<path d="M0 0 C2.31 0 4.62 0 7 0 C6.01 1.485 6.01 1.485 5 3 C2.03 2.505 2.03 2.505 -1 2 C-0.67 1.34 -0.34 0.68 0 0 Z " fill="#383A36" transform="translate(58,280)"/>
<path d="M0 0 C0.99 0 1.98 0 3 0 C2.625 2.4375 2.625 2.4375 2 5 C1.01 5.495 1.01 5.495 0 6 C0 5.34 0 4.68 0 4 C-0.66 3.67 -1.32 3.34 -2 3 C-1.34 3 -0.68 3 0 3 C0 2.01 0 1.02 0 0 Z " fill="#515350" transform="translate(122,217)"/>
<path d="M0 0 C0.99 0.33 1.98 0.66 3 1 C3.33 3.31 3.66 5.62 4 8 C3.34 7.01 2.68 6.02 2 5 C1.01 5 0.02 5 -1 5 C-0.67 3.35 -0.34 1.7 0 0 Z " fill="#323432" transform="translate(414,108)"/>
<path d="M0 0 C0.66 0.33 1.32 0.66 2 1 C1.6875 2.9375 1.6875 2.9375 1 5 C0.01 5.33 -0.98 5.66 -2 6 C-2 4.35 -2 2.7 -2 1 C-1.34 0.67 -0.68 0.34 0 0 Z " fill="#ABABA7" transform="translate(451,298)"/>
<path d="M0 0 C2 1 2 1 2 1 Z " fill="#4A4B46" transform="translate(332,692)"/>
<path d="" fill="#AAA9A5" transform="translate(0,0)"/>
<path d="" fill="#92938E" transform="translate(0,0)"/>
<path d="" fill="#ACABB0" transform="translate(0,0)"/>
</svg>
